<svg width="180" height="180" fill="none" xmlns="http://www.w3.org/2000/svg"><circle opacity=".7" cx="90" cy="90" r="88.5" stroke="url(#paint0_linear_52_159)" stroke-width="3"/><path d="M136.698 45.48a3.426 3.426 0 00-.209-4.631c-1.36-1.263-3.348-1.053-4.603.21l-5.335 5.895c-1.255 1.368-3.033 2.21-4.916 2.21h-11.089c-1.778 0-3.243 1.473-3.243 3.262 0 1.79 1.465 3.263 3.243 3.263h11.089l-13.6 44.523C95.168 94.634 80.732 89.16 71.004 87.687l-1.57-18.735h7.428c2.092 0 3.766-1.579 3.766-3.579 0-1.789-1.36-3.368-3.243-3.578l-18.411-2.42c-1.569-.212-3.139.21-4.29 1.262-1.046.947-1.673 2.21-1.673 3.579 0 2.63 2.301 4.842 5.126 4.842l4.706-.001 1.57 18.525c-12.658 1.158-22.701 12.315-21.864 25.577.627 10.315 8.055 18.631 17.574 21.472v2c0 1.79 1.464 3.369 3.348 3.369h2.301c1.778 0 3.348-1.474 3.348-3.369v-.842h36.09v.842c0 1.79 1.464 3.369 3.348 3.369h2.301c1.779 0 3.348-1.474 3.348-3.369v-.842h.732c16.319-.315 20.608-22.946 5.858-29.892-2.092-.948-4.289-2.001-6.486-2.948l14.855-48.839 7.532-8.63zm-59.522 80.942h-8.16c-.941 0-1.778-.842-1.778-1.789s.837-1.789 1.778-1.789h1.674l-2.51-6c-.314 0-.628.105-.942.105-3.975 0-7.113-3.158-7.113-7.157 0-4 3.139-7.157 7.113-7.157 3.975 0 7.113 3.157 7.113 7.157a7.19 7.19 0 01-2.825 5.683l3.139 7.368h2.615c.942 0 1.778.842 1.778 1.789 0 .948-.837 1.79-1.882 1.79z" fill="url(#paint1_linear_52_159)"/><defs><linearGradient id="paint0_linear_52_159" x1="0" y1="90" x2="180" y2="90" gradientUnits="userSpaceOnUse"><stop stop-color="#191E88"/><stop offset="1" stop-color="#00AC00"/></linearGradient><linearGradient id="paint1_linear_52_159" x1="42.5" y1="90" x2="137.5" y2="90" gradientUnits="userSpaceOnUse"><stop stop-color="#191E88"/><stop offset="1" stop-color="#00AC00"/></linearGradient></defs></svg>