<svg width="180" height="180" fill="none" xmlns="http://www.w3.org/2000/svg"><circle opacity=".7" cx="90" cy="90" r="88.5" stroke="url(#paint0_linear_52_168)" stroke-width="3"/><path d="M116.243 97.174c1.672 2.757 2.661 6.12 2.859 9.517 3.224.73 5.638 3.606 5.638 7.037 0 3.983-3.247 7.222-7.239 7.222-3.991 0-7.238-3.239-7.238-7.222 0-3.384 2.348-6.225 5.502-7.004-.321-4.607-2.398-9.24-5.758-11.38a30.214 30.214 0 00-2.481-.336c-.121 5.404-18.031 18.65-18.031 18.65 0-.001-17.91-13.246-18.028-18.65a29.643 29.643 0 00-3.15.465c-2.609 1.86-4.716 5.49-4.832 9.898a3.68 3.68 0 011.49 1.653c2.379 1.12 4.48 3.478 6.088 6.835a2.37 2.37 0 01.107 1.785c.964 2.477 1.516 5.184 1.516 7.457 0 3.186 0 6.198-3.48 6.971a2.096 2.096 0 01-1.344.484h-2.326a2.115 2.115 0 01-2.114-2.109c.026-1.185.975-2.11 2.114-2.11h2.326c.239 0 .472.04.696.119a.7.7 0 00.184-.074c.26-.458.26-2.365.26-3.28 0-1.849-.464-4.079-1.276-6.149a2.37 2.37 0 01-.97-1.037c-1.412-2.945-3.329-4.848-4.886-4.848-1.593 0-3.606 2.057-5.009 5.115-.23.498-.632.905-1.127 1.146-.734 1.986-1.138 4.027-1.138 5.771 0 .768 0 2.81.294 3.288.004 0 .07.04.255.085.241-.093.495-.14.757-.14h2.33a2.12 2.12 0 012.112 1.986l.017.066-.013.059c0 1.164-.949 2.11-2.114 2.11h-2.33a2.1 2.1 0 01-1.277-.435c-1.33-.25-2.267-.837-2.86-1.789-.72-1.151-.853-2.665-.853-5.232 0-2.252.521-4.844 1.467-7.321a2.335 2.335 0 01.139-1.582c.986-2.151 2.24-3.993 3.626-5.325a9.983 9.983 0 012.437-1.751 3.7 3.7 0 011.562-1.755c.066-2.92.873-5.691 2.196-8.02-10.5 4.568-17.841 15.011-17.841 27.171C44.498 139.273 55.306 140 69.46 140c1.542 0 3.126-.009 4.741-.009h30.596c1.61 0 3.195.009 4.74.009 14.152 0 24.963-.725 24.963-15.482 0-12.319-7.537-22.873-18.256-27.343h-.001z" fill="url(#paint1_linear_52_168)"/><path d="M89.497 98.877c13.682 0 24.768-20.524 24.768-34.167 0-13.648-11.087-24.71-24.768-24.71C75.819 40 64.73 51.063 64.73 64.71c-.001 13.646 11.09 34.167 24.766 34.167zM74.7 53.607c3.7 11.234 29.255 6.176 29.255 6.176 7.361-.56 6.828 9.536 6.819 9.647-1.944 11.517-10.731 25.578-21.278 25.578-10.944 0-19.995-15.152-21.467-26.88 1.156-9.954 6.67-14.521 6.67-14.521z" fill="url(#paint2_linear_52_168)"/><path d="M120.844 113.728a3.337 3.337 0 01-3.341 3.333 3.337 3.337 0 01-3.341-3.333 3.338 3.338 0 013.341-3.334 3.337 3.337 0 013.341 3.334z" fill="url(#paint3_linear_52_168)"/><defs><linearGradient id="paint0_linear_52_168" x1="0" y1="90" x2="180" y2="90" gradientUnits="userSpaceOnUse"><stop stop-color="#191E88"/><stop offset="1" stop-color="#00AC00"/></linearGradient><linearGradient id="paint1_linear_52_168" x1="44.5" y1="117.504" x2="134.5" y2="117.504" gradientUnits="userSpaceOnUse"><stop stop-color="#191E88"/><stop offset="1" stop-color="#00AC00"/></linearGradient><linearGradient id="paint2_linear_52_168" x1="64.731" y1="69.438" x2="114.265" y2="69.438" gradientUnits="userSpaceOnUse"><stop stop-color="#191E88"/><stop offset="1" stop-color="#00AC00"/></linearGradient><linearGradient id="paint3_linear_52_168" x1="114.162" y1="113.728" x2="120.844" y2="113.728" gradientUnits="userSpaceOnUse"><stop stop-color="#191E88"/><stop offset="1" stop-color="#00AC00"/></linearGradient></defs></svg>