<svg width="180" height="180" fill="none" xmlns="http://www.w3.org/2000/svg"><circle opacity=".7" cx="90" cy="90" r="88.5" stroke="url(#paint0_linear_101_57)" stroke-width="3"/><path fill-rule="evenodd" clip-rule="evenodd" d="M31.887 96.035a1.402 1.402 0 00-1.202.682c-.247.42-.246.935.002 1.353 0 0 4.893 8.221 15.303 14.574 10.41 6.352 26.469 10.85 48.435 3.721h.003c17.289-5.576 29.015-7.073 37.297-6.907 8.283.166 13.102 1.959 16.944 3.183l.001-.001c.625.2 1.311-.055 1.642-.609a1.328 1.328 0 00-.273-1.687c-9.158-8.03-18.146-11.32-27.107-12.041-8.961-.722-17.854 1.06-27.091 2.948-18.473 3.775-38.237 8.075-63.283-5.052a1.43 1.43 0 00-.67-.163h-.001z" fill="url(#paint1_linear_101_57)"/><path fill-rule="evenodd" clip-rule="evenodd" d="M80.675 60c-.773.013-1.59.115-2.445.325-3.157.775-8.814 2.967-14.932 5.553-6.119 2.587-12.61 5.553-17.128 7.84l-.001.002c-1.944.986-3.278 2.246-3.989 3.647-.712 1.4-.755 2.95-.17 4.233 1.172 2.57 4.62 3.81 8.414 2.532 11.88-4.002 18.673-6.483 25.534-8.638l.003-.001c1.987-.62 2.581-.44 2.555-.456-.013-.008.023 0 .144.229.118.223.277.614.524 1.082.75 1.52 1.14 2.299 1.412 2.834-7.676 5.728-13.929 10.014-22.52 16.054h-.001a1.34 1.34 0 00-.55 1.363c.105.52.512.932 1.041 1.055 0 0 10.812 2.547 23.139.022 12.014-2.46 14.002-3.323 24.378-4.603v-.001a.451.451 0 00.052 0c.352-.057.855-.132 1.409-.354.555-.223 1.237-.663 1.576-1.439.338-.775.24-1.668-.122-2.545s-.991-1.83-1.984-3.009c-1.88-2.23-6.031-7.11-9.906-11.68-3.875-4.569-7.53-8.903-8.209-9.766l-.007-.008c-.83-1.04-2.046-2.362-3.815-3.27-1.216-.624-2.702-1.023-4.402-.994V60z" fill="url(#paint2_linear_101_57)"/><path fill-rule="evenodd" clip-rule="evenodd" d="M122.797 60.487c-7.518 0-13.654 5.95-13.654 13.27 0 7.307 6.134 13.269 13.654 13.269 7.532 0 13.655-5.964 13.655-13.27 0-7.318-6.124-13.27-13.655-13.27z" fill="url(#paint3_linear_101_57)"/><defs><linearGradient id="paint0_linear_101_57" x1="0" y1="90" x2="180" y2="90" gradientUnits="userSpaceOnUse"><stop stop-color="#191E88"/><stop offset="1" stop-color="#00AC00"/></linearGradient><linearGradient id="paint1_linear_101_57" x1="30.5" y1="108.018" x2="150.5" y2="108.018" gradientUnits="userSpaceOnUse"><stop stop-color="#191E88"/><stop offset="1" stop-color="#00AC00"/></linearGradient><linearGradient id="paint2_linear_101_57" x1="41.605" y1="79.396" x2="109.328" y2="79.396" gradientUnits="userSpaceOnUse"><stop stop-color="#191E88"/><stop offset="1" stop-color="#00AC00"/></linearGradient><linearGradient id="paint3_linear_101_57" x1="109.143" y1="73.756" x2="136.452" y2="73.756" gradientUnits="userSpaceOnUse"><stop stop-color="#191E88"/><stop offset="1" stop-color="#00AC00"/></linearGradient></defs></svg>