<svg width="180" height="180" fill="none" xmlns="http://www.w3.org/2000/svg"><circle opacity=".7" cx="90" cy="90" r="88.5" stroke="url(#paint0_linear_52_262)" stroke-width="3"/><path d="M70.817 37C67.627 37 65 39.626 65 42.818V77.61c0 3.192 2.626 5.818 5.817 5.818h38.365c3.191 0 5.817-2.626 5.817-5.818V42.818c0-3.192-2.626-5.818-5.817-5.818H70.817zm15.587 10.758h7.192c.92 0 1.665.746 1.665 1.665v5.531h5.531c.92 0 1.665.746 1.665 1.665v7.193c0 .919-.745 1.664-1.665 1.665h-5.53v5.53c0 .92-.746 1.665-1.666 1.665l-7.192-.002c-.92 0-1.665-.745-1.665-1.664v-5.53h-5.53c-.92 0-1.665-.746-1.665-1.666v-7.192c0-.92.746-1.665 1.665-1.665h5.53v-5.53c0-.92.746-1.665 1.665-1.666v.001z" fill="url(#paint1_linear_52_262)"/><path d="M41.786 51.286c-.987 0-1.786.8-1.786 1.785v12.591c0 .986.8 1.786 1.786 1.786h19.643V51.286H41.786z" fill="url(#paint2_linear_52_262)"/><path d="M118.572 51.286v16.162h19.643c.986 0 1.786-.8 1.786-1.786v-12.59c0-.987-.8-1.786-1.786-1.786h-19.643z" fill="url(#paint3_linear_52_262)"/><path d="M43.572 71.02v60.623c0 2.937 2.42 5.357 5.357 5.357h23.215V99.5c0-.986.8-1.786 1.785-1.786h32.143c.987 0 1.786.8 1.786 1.786V137h23.214c2.938 0 5.357-2.42 5.357-5.357V71.02h-17.857v6.591c0 5.151-4.238 9.39-9.389 9.39H70.819c-5.15 0-9.389-4.239-9.389-9.39V71.02H43.572zm75.245 19.69h7.143a1.784 1.784 0 011.262 3.049 1.784 1.784 0 01-1.262.523h-7.143a1.786 1.786 0 010-3.571zm-64.938 1.005h7.143a1.785 1.785 0 010 3.572H53.88a1.786 1.786 0 110-3.572zm21.838 9.571V137h12.5v-35.714h-12.5zm16.071 0V137h12.5v-35.714h-12.5zm27.031.139h7.143a1.785 1.785 0 010 3.571h-7.143a1.785 1.785 0 110-3.571zm-64.938 1.005h7.143a1.785 1.785 0 110 3.571h-7.143a1.785 1.785 0 110-3.571zm64.938 9.709h7.143a1.786 1.786 0 010 3.572h-7.143a1.786 1.786 0 110-3.572zm-64.938 1.005h7.143a1.785 1.785 0 110 3.571h-7.143a1.785 1.785 0 110-3.571zm64.938 9.71h7.143a1.785 1.785 0 010 3.571h-7.143a1.785 1.785 0 110-3.571zm-64.938 1.004h7.143a1.785 1.785 0 011.263 3.048 1.786 1.786 0 01-1.263.524h-7.143a1.786 1.786 0 010-3.572z" fill="url(#paint4_linear_52_262)"/><defs><linearGradient id="paint0_linear_52_262" x1="0" y1="90" x2="180" y2="90" gradientUnits="userSpaceOnUse"><stop stop-color="#191E88"/><stop offset="1" stop-color="#00AC00"/></linearGradient><linearGradient id="paint1_linear_52_262" x1="65" y1="60.214" x2="114.999" y2="60.214" gradientUnits="userSpaceOnUse"><stop stop-color="#191E88"/><stop offset="1" stop-color="#00AC00"/></linearGradient><linearGradient id="paint2_linear_52_262" x1="40" y1="59.367" x2="61.429" y2="59.367" gradientUnits="userSpaceOnUse"><stop stop-color="#191E88"/><stop offset="1" stop-color="#00AC00"/></linearGradient><linearGradient id="paint3_linear_52_262" x1="118.572" y1="59.367" x2="140.001" y2="59.367" gradientUnits="userSpaceOnUse"><stop stop-color="#191E88"/><stop offset="1" stop-color="#00AC00"/></linearGradient><linearGradient id="paint4_linear_52_262" x1="43.572" y1="104.01" x2="136.429" y2="104.01" gradientUnits="userSpaceOnUse"><stop stop-color="#191E88"/><stop offset="1" stop-color="#00AC00"/></linearGradient></defs></svg>