<svg width="11" height="16" fill="none" xmlns="http://www.w3.org/2000/svg"><path d="M5.5 0a5.492 5.492 0 00-3.89 1.616A5.525 5.525 0 000 5.516c0 2.83 4.532 9.494 5.049 10.244a.55.55 0 00.907 0C6.469 15.01 11 8.346 11 5.516c0-1.463-.58-2.866-1.61-3.9A5.492 5.492 0 005.5 0zm0 8.826a3.293 3.293 0 01-3.049-2.043 3.319 3.319 0 01.716-3.607 3.297 3.297 0 013.596-.718 3.317 3.317 0 011.07 5.398 3.292 3.292 0 01-2.333.97z" fill="#00AC00"/><path d="M5.5 0a5.492 5.492 0 00-3.89 1.616A5.525 5.525 0 000 5.516c0 2.83 4.532 9.494 5.049 10.244a.55.55 0 00.907 0C6.469 15.01 11 8.346 11 5.516c0-1.463-.58-2.866-1.61-3.9A5.492 5.492 0 005.5 0zm0 8.826a3.293 3.293 0 01-3.049-2.043 3.319 3.319 0 01.716-3.607 3.297 3.297 0 013.596-.718 3.317 3.317 0 011.07 5.398 3.292 3.292 0 01-2.333.97z" fill="#1D24B1"/></svg>