<svg width="20" height="20" fill="none" xmlns="http://www.w3.org/2000/svg"><g clip-path="url(#clip0_54_703)" fill="#fff"><path d="M16.83 3.383c-1.92-2.013-4.872-2.322-7.055-1.11a.39.39 0 10.38.684c1.997-1.11 4.509-.712 6.108.964a5.09 5.09 0 01.56 6.294c-1.759 2.67-5.556 3.072-7.833.795-1.534-1.533-1.978-4.006-.87-6.019a.39.39 0 00-.685-.377 5.87 5.87 0 001.003 6.948c2.623 2.624 7.004 2.17 9.037-.917a5.87 5.87 0 00-.645-7.262z"/><path d="M17.83 2.17c-2.895-2.893-7.604-2.893-10.498 0a7.425 7.425 0 00-.764 9.604l-1.217 1.218a1.172 1.172 0 00-1.334.229L.573 16.665a1.951 1.951 0 000 2.762 1.951 1.951 0 002.762 0l3.444-3.444c.368-.367.434-.907.23-1.334l1.217-1.217a7.424 7.424 0 009.604-.764c2.894-2.894 2.894-7.603 0-10.497zM6.227 15.43l-3.445 3.445a1.17 1.17 0 01-1.657 0 1.17 1.17 0 010-1.657l3.444-3.445a.391.391 0 01.553 0l1.105 1.106a.39.39 0 010 .552zm.276-1.38l-.553-.553 1.113-1.112a7.533 7.533 0 00.552.552L6.503 14.05zm10.774-1.934a6.631 6.631 0 01-9.393 0 6.632 6.632 0 010-9.393 6.65 6.65 0 019.393 0 6.65 6.65 0 010 9.393z"/><path d="M8.999 3.286l-.01-.01a.391.391 0 00-.552.552l.01.01a.391.391 0 00.552-.552z"/></g><defs><clipPath id="clip0_54_703"><path fill="#fff" d="M0 0h20v20H0z"/></clipPath></defs></svg>