<svg width="1920" height="60" fill="none" xmlns="http://www.w3.org/2000/svg"><path fill-rule="evenodd" clip-rule="evenodd" d="M1000 60C973.979 41.665 959.645 21.612 959.645.6l.003-.6H0v60h1000z" fill="#1D24B1"/><path fill-rule="evenodd" clip-rule="evenodd" d="M1020.37 60H1920V0H980.004c-.003.2-.004.4-.004.6 0 21.012 14.34 41.065 40.37 59.4z" fill="#00AC00"/><path opacity=".5" fill-rule="evenodd" clip-rule="evenodd" d="M1151 55c13.81 0 25-11.193 25-25s-11.19-25-25-25-25 11.193-25 25 11.19 25 25 25zm0-10c8.28 0 15-6.716 15-15 0-8.284-6.72-15-15-15-8.28 0-15 6.716-15 15 0 8.284 6.72 15 15 15z" fill="#fff"/><path opacity=".5" fill-rule="evenodd" clip-rule="evenodd" d="M1151 65c19.33 0 35-15.67 35-35s-15.67-35-35-35-35 15.67-35 35 15.67 35 35 35zm0-14c11.6 0 21-9.402 21-21s-9.4-21-21-21-21 9.402-21 21 9.4 21 21 21z" fill="#fff"/><path opacity=".4" fill-rule="evenodd" clip-rule="evenodd" d="M775 25c13.807 0 25-11.193 25-25s-11.193-25-25-25-25 11.193-25 25 11.193 25 25 25zm0-10c8.284 0 15-6.716 15-15 0-8.284-6.716-15-15-15-8.284 0-15 6.716-15 15 0 8.284 6.716 15 15 15z" fill="#fff"/><path opacity=".4" fill-rule="evenodd" clip-rule="evenodd" d="M775 35c19.33 0 35-15.67 35-35s-15.67-35-35-35-35 15.67-35 35 15.67 35 35 35zm0-14c11.598 0 21-9.402 21-21s-9.402-21-21-21-21 9.402-21 21 9.402 21 21 21zm1036 4c13.81 0 25-11.193 25-25s-11.19-25-25-25-25 11.193-25 25 11.19 25 25 25zm0-10c8.28 0 15-6.716 15-15 0-8.284-6.72-15-15-15-8.28 0-15 6.716-15 15 0 8.284 6.72 15 15 15z" fill="#fff"/><path opacity=".4" fill-rule="evenodd" clip-rule="evenodd" d="M1811 35c19.33 0 35-15.67 35-35s-15.67-35-35-35-35 15.67-35 35 15.67 35 35 35zm0-14c11.6 0 21-9.402 21-21s-9.4-21-21-21-21 9.402-21 21 9.4 21 21 21zM203 94c13.807 0 25-11.193 25-25s-11.193-25-25-25-25 11.193-25 25 11.193 25 25 25zm0-10c8.284 0 15-6.716 15-15 0-8.284-6.716-15-15-15-8.284 0-15 6.716-15 15 0 8.284 6.716 15 15 15z" fill="#fff"/><path opacity=".4" fill-rule="evenodd" clip-rule="evenodd" d="M203 104c19.33 0 35-15.67 35-35s-15.67-35-35-35-35 15.67-35 35 15.67 35 35 35zm0-14c11.598 0 21-9.402 21-21s-9.402-21-21-21-21 9.402-21 21 9.402 21 21 21z" fill="#fff"/></svg>