<svg width="16" height="17" fill="none" xmlns="http://www.w3.org/2000/svg"><path d="M15.88 11.843a1.521 1.521 0 00-.71-.555l-.198-.105c-.02 0-2.16-1.15-2.568-1.31-.302-.119-.925-.35-1.393.395-.209.349-.841 1.142-1.133 1.502-.026.031-.045.045-.045.049a.499.499 0 01-.186-.074c-.065-.034-.158-.076-.267-.129A9.027 9.027 0 016.777 9.87a11.238 11.238 0 01-1.961-2.62l-.045-.056c.033-.043.068-.084.106-.122.128-.136.266-.318.398-.489l.186-.237c.155-.2.285-.423.385-.66l.048-.109a1.317 1.317 0 00-.029-1.167 97.593 97.593 0 01-.719-1.844L4.74 1.499C4.395.615 3.952.503 3.54.5h-.789a1.716 1.716 0 00-.733.18c-.23.114-.437.279-.606.484l-.067.077A4.938 4.938 0 00.334 2.88 5.273 5.273 0 000 4.826c0 1.907 1.123 3.72 1.605 4.416l.054.087c1.072 1.642 3.335 4.615 6.462 6.061.703.325 1.422.61 2.154.852.51.173 1.041.26 1.576.259.322 0 .644-.029.963-.084.767-.122 2.478-1.017 2.889-2.222.266-.803.417-1.897.173-2.337l.003-.014zm-1.078 1.977c-.222.657-1.48 1.443-2.116 1.548a4.374 4.374 0 01-2.118-.14c-.7-.233-1.39-.506-2.064-.817-2.908-1.345-5.04-4.15-6.05-5.705a1.538 1.538 0 00-.081-.119C2.052 8.116.963 6.446.963 4.811a4.165 4.165 0 01.271-1.555c.188-.492.468-.937.821-1.306l.077-.088a.9.9 0 01.29-.236.83.83 0 01.352-.092h.797c.102 0 .163 0 .301.35l.41 1.047c.421 1.097.681 1.775.746 1.915.064.14.05.178.032.22l-.055.112c-.062.16-.146.308-.25.44l-.196.255a5.15 5.15 0 01-.321.409 1.113 1.113 0 00-.377.675c-.044.268.006.544.14.774a12.213 12.213 0 002.153 2.872 10.02 10.02 0 002.86 1.939l.222.105a.99.99 0 00.725.17c.252-.04.483-.18.649-.39.186-.227.937-1.17 1.21-1.607.025-.042.045-.063.048-.07a.987.987 0 01.224.07c.29.111 1.997 1.01 2.478 1.264l.21.112c.099.049.214.112.282.154a4.11 4.11 0 01-.26 1.47z" fill="#fff"/></svg>