<svg width="13" height="19" fill="none" xmlns="http://www.w3.org/2000/svg"><path d="M6.12.5c-1.623 0-3.18.654-4.327 1.818A6.25 6.25 0 000 6.706c0 3.183 5.043 10.68 5.618 11.524a.615.615 0 00.505.27.605.605 0 00.505-.27c.57-.844 5.612-8.34 5.612-11.524a6.25 6.25 0 00-1.793-4.388A6.077 6.077 0 006.12.5zm0 9.93a3.636 3.636 0 01-2.04-.628A3.713 3.713 0 012.728 8.13a3.772 3.772 0 01-.21-2.152 3.74 3.74 0 011.006-1.906 3.657 3.657 0 011.88-1.02 3.625 3.625 0 012.121.213 3.683 3.683 0 011.648 1.371 3.76 3.76 0 01-.457 4.702 3.646 3.646 0 01-2.596 1.09z" fill="#fff"/></svg>