<svg width="70" height="70" fill="none" xmlns="http://www.w3.org/2000/svg"><path fill-rule="evenodd" clip-rule="evenodd" d="M65.242 17.37C59.296 8.693 49.313 3 38 3 19.775 3 5 17.775 5 36s14.775 33 33 33c3.703 0 7.263-.61 10.585-1.734A34.89 34.89 0 0135 70C15.67 70 0 54.33 0 35S15.67 0 35 0c12.901 0 24.172 6.98 30.242 17.37z" fill="#1D24B1"/><path fill-rule="evenodd" clip-rule="evenodd" d="M17 37.675v-5.401c0-1.376 1.121-2.497 2.548-2.497h12.23v-12.23c0-1.426 1.12-2.547 2.496-2.547h5.401a2.523 2.523 0 012.548 2.548v12.23h12.23c1.375 0 2.547 1.12 2.547 2.496v5.401a2.555 2.555 0 01-2.548 2.548h-12.23v12.23A2.555 2.555 0 0139.676 55h-5.401c-1.376 0-2.497-1.172-2.497-2.548v-12.23h-12.23A2.523 2.523 0 0117 37.676z" fill="#1D24B1"/></svg>