<svg width="70" height="70" fill="none" xmlns="http://www.w3.org/2000/svg"><path fill-rule="evenodd" clip-rule="evenodd" d="M65.242 17.37C59.296 8.693 49.313 3 38 3 19.775 3 5 17.775 5 36s14.775 33 33 33c3.703 0 7.263-.61 10.585-1.734A34.89 34.89 0 0135 70C15.67 70 0 54.33 0 35S15.67 0 35 0c12.901 0 24.172 6.98 30.242 17.37z" fill="#1D24B1"/><path d="M39.982 37.798C44.308 35.768 47 31.632 47 27.006c0-3.155-1.312-6.16-3.702-8.45A12.646 12.646 0 0034.5 15C27.607 15 22 20.386 22 27.007h6.336c0-3.265 2.764-5.921 6.164-5.921 1.593 0 3.129.63 4.316 1.775 1.192 1.145 1.848 2.616 1.848 4.15 0 2.28-1.328 4.321-3.462 5.326-3.566 1.665-5.867 5.371-5.867 9.426v2.2h6.335v-2.2c-.005-1.75.906-3.305 2.312-3.965zm-5.483 9.601c-2.176 0-3.946 1.705-3.946 3.79 0 2.11 1.775 3.811 3.946 3.811 2.176 0 3.946-1.705 3.946-3.81 0-2.086-1.77-3.791-3.946-3.791z" fill="#1D24B1"/></svg>