<svg width="70" height="70" fill="none" xmlns="http://www.w3.org/2000/svg"><path fill-rule="evenodd" clip-rule="evenodd" d="M65.242 17.37C59.296 8.693 49.313 3 38 3 19.775 3 5 17.775 5 36s14.775 33 33 33c3.703 0 7.263-.61 10.585-1.734A34.89 34.89 0 0135 70C15.67 70 0 54.33 0 35S15.67 0 35 0c12.901 0 24.172 6.98 30.242 17.37z" fill="#1D24B1"/><path d="M28.98 25.84c-.658.115-.96 1.53-.67 3.158.265 1.495.935 2.653 1.558 2.74.788 2.131 2.038 4.203 3.583 5.714.873.86 1.842 1.537 2.873 1.95.71.28 1.452.439 2.214.439a5.96 5.96 0 002.212-.44c1.069-.427 2.07-1.138 2.967-2.038 1.507-1.509 2.728-3.548 3.498-5.642.596-.176 1.22-1.294 1.474-2.724.274-1.551.016-2.904-.581-3.129.022-.379.035-.762.033-1.153-.013-5.622-3.297-9.334-8.473-9.681-4.513-.306-7.913 1.495-9.462 4.486-.522 1.006-.817 2.71-.933 4.078a9.34 9.34 0 00-.275 2.22h.018a.056.056 0 01-.002.018.285.285 0 00-.034.004zm1.447 1.226c.07-.013.143 0 .216.031a.654.654 0 01.16.096h.002c0-.01 0-.02.002-.029.024-.237.212-1.51 1.003-2.518.53-.678 1.336-1.235 2.546-1.281a4.28 4.28 0 01.594.015s1.42.523 3.21.548c.859.013 1.8-.087 2.716-.416a20.426 20.426 0 01.872.001c1.082.04 1.849.563 2.621.951.063.031.124.064.187.093-.027-.357-.279-.72-.306-.98-.002-.022-.007-.045-.005-.065.134.038.255.096.372.16.596.637 1.173 1.703 1.634 3.43l.019.067v.021l.006-.002v.002l.008-.008a.607.607 0 01.183-.103.149.149 0 01.046-.008c.018-.001.036-.001.053-.003.027-.002.06-.011.084-.007h.002c.03.005.06.016.088.027.287.137.453.68.44 1.378a4.573 4.573 0 01-.075.74c-.011.069-.028.128-.045.194-.152.7-.432 1.274-.729 1.528a.6.6 0 01-.206.121.382.382 0 01-.19.02c-.01-.002-.019-.007-.028-.01a.371.371 0 01-.164-.093l-.03.084c-.723 2.207-2.072 4.394-3.771 5.73a7.49 7.49 0 01-.785.539c-.817.481-1.697.765-2.614.765-.028 0-.056-.003-.085-.004-1.161-.022-2.264-.49-3.249-1.246-1.752-1.347-3.144-3.602-3.868-5.868a.407.407 0 01-.142.084c-.017.006-.034.015-.053.018a.35.35 0 01-.148-.009.678.678 0 01-.307-.189c-.305-.306-.582-.922-.713-1.663-.01-.05-.015-.095-.021-.145a24.28 24.28 0 01.06-1.513c.065-.19.15-.34.263-.418a.376.376 0 01.13-.057c.003-.001.01-.007.017-.009zM38.48 55h.043c7.687 0 16.47-1.091 18.085-4.155.157-.294.25-.616.317-.948a3.775 3.775 0 00-.063-1.76c-.653-2.268-1.476-3.826-2.324-4.924-1.647-2.137-3.38-2.481-4.12-2.622a3.831 3.831 0 01-.227-.047c-.073-.017-.152-.027-.227-.043.019.037.04.071.057.11.198.423.335.864.409 1.312.127.044.245.094.357.155a2.474 2.474 0 011.007 3.337 2.453 2.453 0 01-4.516-.447 2.46 2.46 0 01.184-1.878c.307-.577.831-1 1.459-1.19-.139-.547-.431-1.163-.891-1.626l-.44-.027c-.672-.04-1.312-.075-1.833-.18-.606 1.61-7.254 6.337-7.254 6.337s-6.646-4.727-7.253-6.337c-.524.105-1.164.142-1.835.181l-.37.023c-.518.458-.895 1.06-1.043 1.583.197.147.356.345.461.577.947.448 1.781 1.391 2.421 2.734.107.226.12.482.043.714.383.99.602 2.074.602 2.983 0 1.274 0 2.48-1.383 2.788a.83.83 0 01-.535.194h-.924a.844.844 0 01-.84-.844v-.033a.847.847 0 01.84-.81h.925a.83.83 0 01.276.047.232.232 0 00.074-.03c.103-.183.103-.946.103-1.312 0-.739-.184-1.63-.507-2.46a.945.945 0 01-.386-.414c-.56-1.178-1.323-1.94-1.942-1.94-.633 0-1.433.823-1.991 2.047a.956.956 0 01-.448.458c-.292.794-.452 1.61-.452 2.308 0 .308 0 1.124.117 1.316.001 0 .027.016.101.034a.84.84 0 01.301-.056h.926c.432 0 .792.33.836.758l.005.053c0 .498-.377.877-.84.877h-.926a.83.83 0 01-.508-.174c-.529-.1-.901-.334-1.137-.715-.286-.461-.338-1.067-.338-2.093 0-.901.207-1.938.583-2.929a.94.94 0 01.055-.633c.392-.86.89-1.597 1.441-2.13.303-.293.628-.528.969-.7a1.49 1.49 0 01.597-.694c.074-.419.237-.85.468-1.265-.057.012-.117.02-.172.033l-.228.046c-.697.135-2.281.44-3.844 2.27-.943 1.104-1.876 2.76-2.604 5.272a3.732 3.732 0 00-.035 1.9c.068.28.157.557.291.813C22.007 53.909 30.795 55 38.48 55z" fill="#1D24B1"/></svg>