<svg width="70" height="70" fill="none" xmlns="http://www.w3.org/2000/svg"><path fill-rule="evenodd" clip-rule="evenodd" d="M65.242 17.37C59.296 8.693 49.313 3 38 3 19.775 3 5 17.775 5 36s14.775 33 33 33c3.703 0 7.263-.61 10.585-1.734A34.89 34.89 0 0135 70C15.67 70 0 54.33 0 35S15.67 0 35 0c12.901 0 24.172 6.98 30.242 17.37z" fill="#1D24B1"/><path d="M36.874 23.918a44.396 44.396 0 01.711.786c.9.026 1.694.062 2.306.094v2.577l.737.866c.269.317.43.723.453 1.141l.017.309c.26.007.517.01.766.01 4.116 0 6.775-.95 6.939-2.482l.389-.062c-.002.035-.002.069-.006.104-.204 1.909-3.277 2.961-8.222 2.813a1.405 1.405 0 00-.084 2.809c.34.01.671.015.996.015 4.902 0 8.082-1.155 9.46-3.439a4.68 4.68 0 00.653-2.753 5.446 5.446 0 00-.704-2.303c-.739-1.311-1.86-2.167-2.987-2.308a1.353 1.353 0 00-.277-.029h-.379a4.313 4.313 0 01-6.018 0h-.354a88.226 88.226 0 00-5.215-.204 4.31 4.31 0 01-.422 1.318c.437.088.853.333 1.24.738zm-10.202 0c.387-.405.803-.65 1.24-.737a4.335 4.335 0 01-.28-.685c-.27.063-.528.13-.77.205a1.405 1.405 0 00-.854 1.948l.17-.192c.212-.236.373-.412.494-.54z" fill="#1D24B1"/><path d="M22.154 35.03c.018.025.035.051.057.075.12.132.28.213.452.241l-.055.995c-.036.66.39 1.238.995 1.42L22.866 54.3l-.219-.01-.029.658L23.8 55l.029-.658-.22-.01.74-16.552a1.404 1.404 0 001.06-1.285l.057-1.027.052.002.031.001a.786.786 0 00.451-.143.788.788 0 00.13-1.183c-.02-.02-.041-.036-.061-.054a.78.78 0 00-.488-.2h-.028l.21-3.853c.425-.5.857-1.006 1.266-1.48v18.317a2.17 2.17 0 104.336 0v-10.04h.813V52.69a2.17 2.17 0 104.337 0V28.558c.408.475.84.98 1.264 1.48l.211 3.852-.028.002a.779.779 0 00-.488.2c-.02.017-.041.033-.06.054a.786.786 0 00.128 1.182.78.78 0 00.451.143l.084-.003.056 1.027c.035.63.48 1.14 1.062 1.285l.738 16.552-.219.01.03.658 1.182-.053-.03-.658-.218.01-.738-16.537a1.404 1.404 0 00.995-1.42l-.055-.996a.78.78 0 00.452-.24c.022-.024.039-.05.057-.076l.07 1.282a1.925 1.925 0 01-.978 1.788l.598 13.403c.294.15.626.236.979.236a2.17 2.17 0 002.168-2.171V36.793h.813v15.853a2.17 2.17 0 104.336 0V31.8c-1.77.987-4.277 1.486-7.5 1.486-.19 0-.386-.002-.582-.006l.042.761a.782.782 0 00-.541-.257l-.029-.522a1.791 1.791 0 01-1.633-1.836 1.806 1.806 0 011.44-1.703l-.018-.31a1.407 1.407 0 00-.33-.832c-.01-.011-.962-1.134-1.91-2.236-.56-.65-1.012-1.167-1.342-1.536-.205-.23-.363-.403-.481-.526-.42-.44-.816-.593-1.15-.61a4.328 4.328 0 01-3.57 1.884 4.328 4.328 0 01-3.57-1.884c-.335.017-.73.17-1.15.61-.119.123-.276.295-.482.526-.33.37-.781.886-1.341 1.536-.95 1.101-1.9 2.224-1.91 2.235a1.404 1.404 0 00-.331.832l-.24 4.372a.78.78 0 00-.54.257.786.786 0 00-.207.498.79.79 0 00.154.492zm18.862-.471a.261.261 0 01-.07.189.26.26 0 01-.182.085l-2.76.11-.01.001a.266.266 0 01-.263-.253.261.261 0 01.07-.189.26.26 0 01.182-.084l2.77-.112c.14 0 .258.114.263.253zm-18.215-.252l2.76.11a.263.263 0 01.252.275.266.266 0 01-.262.252l-2.771-.111a.261.261 0 01-.182-.085.262.262 0 01-.07-.189.268.268 0 01.273-.252z" fill="#1D24B1"/><path d="M35.718 21.219a3.949 3.949 0 01-3.946 3.951 3.948 3.948 0 01-3.946-3.951 3.948 3.948 0 013.946-3.951 3.949 3.949 0 013.946 3.951zm12.862-2.268a3.949 3.949 0 01-3.947 3.952 3.949 3.949 0 01-3.946-3.952A3.949 3.949 0 0144.633 15a3.949 3.949 0 013.946 3.951z" fill="#1D24B1"/></svg>