<svg width="30" height="30" fill="none" xmlns="http://www.w3.org/2000/svg"><path opacity=".7" fill-rule="evenodd" clip-rule="evenodd" d="M15 30c8.284 0 15-6.716 15-15 0-8.284-6.716-15-15-15C6.716 0 0 6.716 0 15c0 8.284 6.716 15 15 15zm0-6a9 9 0 100-18 9 9 0 000 18z" fill="#1D24B1"/><path opacity=".7" fill-rule="evenodd" clip-rule="evenodd" d="M15 28c7.18 0 13-5.82 13-13S22.18 2 15 2 2 7.82 2 15s5.82 13 13 13zm0-5.2a7.8 7.8 0 100-15.6 7.8 7.8 0 000 15.6z" fill="#00AC00"/><circle cx="15" cy="15" r="8" fill="#D9D9D9"/><path d="M10.5 15l6.75-3.897v7.794L10.5 15z" fill="#1D24B1"/></svg>