<svg width="1592" height="533" fill="none" xmlns="http://www.w3.org/2000/svg"><path opacity=".3" fill-rule="evenodd" clip-rule="evenodd" d="M701 488c13.807 0 25-11.193 25-25s-11.193-25-25-25-25 11.193-25 25 11.193 25 25 25zm0-10c8.284 0 15-6.716 15-15 0-8.284-6.716-15-15-15-8.284 0-15 6.716-15 15 0 8.284 6.716 15 15 15z" fill="#fff"/><path opacity=".3" fill-rule="evenodd" clip-rule="evenodd" d="M701 498c19.33 0 35-15.67 35-35s-15.67-35-35-35-35 15.67-35 35 15.67 35 35 35zm0-14c11.598 0 21-9.402 21-21s-9.402-21-21-21-21 9.402-21 21 9.402 21 21 21zm-437 39c13.807 0 25-11.193 25-25s-11.193-25-25-25-25 11.193-25 25 11.193 25 25 25zm0-10c8.284 0 15-6.716 15-15 0-8.284-6.716-15-15-15-8.284 0-15 6.716-15 15 0 8.284 6.716 15 15 15z" fill="#fff"/><path opacity=".3" fill-rule="evenodd" clip-rule="evenodd" d="M264 533c19.33 0 35-15.67 35-35s-15.67-35-35-35-35 15.67-35 35 15.67 35 35 35zm0-14c11.598 0 21-9.402 21-21s-9.402-21-21-21-21 9.402-21 21 9.402 21 21 21zm212-378c13.807 0 25-11.193 25-25s-11.193-25-25-25-25 11.193-25 25 11.193 25 25 25zm0-10c8.284 0 15-6.716 15-15 0-8.284-6.716-15-15-15-8.284 0-15 6.716-15 15 0 8.284 6.716 15 15 15z" fill="#fff"/><path opacity=".3" fill-rule="evenodd" clip-rule="evenodd" d="M476 151c19.33 0 35-15.67 35-35s-15.67-35-35-35-35 15.67-35 35 15.67 35 35 35zm0-14c11.598 0 21-9.402 21-21s-9.402-21-21-21-21 9.402-21 21 9.402 21 21 21zm1021 351c13.81 0 25-11.193 25-25s-11.19-25-25-25-25 11.193-25 25 11.19 25 25 25zm0-10c8.28 0 15-6.716 15-15 0-8.284-6.72-15-15-15-8.28 0-15 6.716-15 15 0 8.284 6.72 15 15 15z" fill="#fff"/><path opacity=".3" fill-rule="evenodd" clip-rule="evenodd" d="M1497 498c19.33 0 35-15.67 35-35s-15.67-35-35-35-35 15.67-35 35 15.67 35 35 35zm0-14c11.6 0 21-9.402 21-21s-9.4-21-21-21-21 9.402-21 21 9.4 21 21 21zM35 106c13.807 0 25-11.193 25-25S48.807 56 35 56 10 67.193 10 81s11.193 25 25 25zm0-10c8.284 0 15-6.716 15-15 0-8.284-6.716-15-15-15-8.284 0-15 6.716-15 15 0 8.284 6.716 15 15 15z" fill="#fff"/><path opacity=".3" fill-rule="evenodd" clip-rule="evenodd" d="M35 116c19.33 0 35-15.67 35-35S54.33 46 35 46 0 61.67 0 81s15.67 35 35 35zm0-14c11.598 0 21-9.402 21-21s-9.402-21-21-21-21 9.402-21 21 9.402 21 21 21zm1522-42c13.81 0 25-11.193 25-25s-11.19-25-25-25-25 11.193-25 25 11.19 25 25 25zm0-10c8.28 0 15-6.716 15-15 0-8.284-6.72-15-15-15-8.28 0-15 6.716-15 15 0 8.284 6.72 15 15 15z" fill="#fff"/><path opacity=".3" fill-rule="evenodd" clip-rule="evenodd" d="M1557 70c19.33 0 35-15.67 35-35s-15.67-35-35-35-35 15.67-35 35 15.67 35 35 35zm0-14c11.6 0 21-9.402 21-21s-9.4-21-21-21-21 9.402-21 21 9.4 21 21 21zm-386 110c13.81 0 25-11.193 25-25s-11.19-25-25-25-25 11.193-25 25 11.19 25 25 25zm0-10c8.28 0 15-6.716 15-15 0-8.284-6.72-15-15-15-8.28 0-15 6.716-15 15 0 8.284 6.72 15 15 15z" fill="#fff"/><path opacity=".3" fill-rule="evenodd" clip-rule="evenodd" d="M1171 176c19.33 0 35-15.67 35-35s-15.67-35-35-35-35 15.67-35 35 15.67 35 35 35zm0-14c11.6 0 21-9.402 21-21s-9.4-21-21-21-21 9.402-21 21 9.4 21 21 21z" fill="#fff"/></svg>