<svg width="30" height="30" fill="none" xmlns="http://www.w3.org/2000/svg"><path opacity=".7" fill-rule="evenodd" clip-rule="evenodd" d="M15 30C6.716 30 0 23.284 0 15 0 6.716 6.716 0 15 0c8.284 0 15 6.716 15 15 0 8.284-6.716 15-15 15zm0-6a9 9 0 110-18 9 9 0 010 18z" fill="#1D24B1"/><path opacity=".7" fill-rule="evenodd" clip-rule="evenodd" d="M15 28C7.82 28 2 22.18 2 15S7.82 2 15 2s13 5.82 13 13-5.82 13-13 13zm0-5.2a7.8 7.8 0 110-15.6 7.8 7.8 0 010 15.6z" fill="#00AC00"/><circle r="8" transform="matrix(-1 0 0 1 15 15)" fill="#D9D9D9"/><path d="M19.5 15l-6.75-3.897v7.794L19.5 15z" fill="#1D24B1"/></svg>