<svg width="180" height="180" viewBox="0 0 180 180" fill="none" xmlns="http://www.w3.org/2000/svg">
<circle opacity="0.7" cx="90" cy="90" r="88.5" stroke="url(#paint0_linear_101_57)" stroke-width="3"/>
<path fill-rule="evenodd" clip-rule="evenodd" d="M31.8868 96.0352C31.3895 96.038 30.932 96.2981 30.6848 96.7171C30.4376 97.1361 30.4386 97.6516 30.6868 98.0697C30.6868 98.0697 35.5796 106.291 45.99 112.644C56.3993 118.996 72.4587 123.494 94.4251 116.365C94.4251 116.365 94.4261 116.365 94.428 116.365C111.717 110.789 123.443 109.292 131.725 109.458C140.008 109.624 144.827 111.417 148.669 112.641L148.67 112.64C149.295 112.84 149.981 112.585 150.312 112.031C150.643 111.477 150.529 110.774 150.039 110.344C140.881 102.314 131.893 99.0234 122.932 98.3028C113.971 97.5811 105.078 99.3631 95.8408 101.251C77.3684 105.026 57.6039 109.326 32.5579 96.1994V96.1984C32.3525 96.0906 32.1219 96.0348 31.8883 96.0357L31.8868 96.0352Z" fill="url(#paint1_linear_101_57)"/>
<path fill-rule="evenodd" clip-rule="evenodd" d="M80.675 60C79.9022 60.0132 79.0856 60.1154 78.23 60.3254V60.3244H78.2291C75.0727 61.1 69.4159 63.2916 63.2976 65.8777C57.1794 68.4647 50.6876 71.4309 46.1705 73.7179V73.7188C46.1696 73.7198 46.1696 73.7198 46.1686 73.7198C44.2249 74.7063 42.8906 75.9662 42.18 77.3669C41.4685 78.7677 41.4247 80.3161 42.0106 81.6005C43.1825 84.1693 46.6299 85.4093 50.4239 84.1315C62.3041 80.1297 69.0966 77.6495 75.9583 75.4939C75.9593 75.4939 75.9603 75.493 75.9612 75.493C77.9478 74.8735 78.5423 75.0532 78.5162 75.0371C78.5035 75.0286 78.5395 75.0371 78.6602 75.266C78.778 75.4892 78.9366 75.8799 79.1839 76.3481C79.9343 77.8671 80.3236 78.6465 80.5961 79.1818C72.9196 84.9099 66.6673 89.1965 58.0769 95.2359L58.0749 95.2369C57.634 95.5471 57.4189 96.0787 57.525 96.5989C57.6301 97.1182 58.037 97.5306 58.5664 97.6545C58.5664 97.6545 69.378 100.201 81.7046 97.6762C93.7191 95.2161 95.7065 94.3533 106.083 93.0727V93.0717C106.1 93.0727 106.118 93.0727 106.135 93.0717C106.487 93.015 106.99 92.9402 107.544 92.718C108.099 92.4948 108.781 92.0549 109.12 91.2793C109.458 90.5037 109.36 89.6109 108.998 88.734C108.636 87.8572 108.007 86.9047 107.014 85.7251H107.015C107.015 85.7251 107.014 85.7251 107.014 85.7242C105.134 83.4958 100.983 78.6152 97.1081 74.0458C93.2333 69.4764 89.5776 65.1423 88.8993 64.2789V64.2798C88.8974 64.277 88.8945 64.2741 88.8925 64.2713C88.0613 63.2309 86.8457 61.9086 85.0773 61.0015C83.8607 60.3772 82.3754 59.978 80.6751 60.0074L80.675 60Z" fill="url(#paint2_linear_101_57)"/>
<path fill-rule="evenodd" clip-rule="evenodd" d="M122.797 60.4867C115.279 60.4867 109.143 66.4361 109.143 73.7562C109.143 81.0639 115.277 87.0256 122.797 87.0256C130.329 87.0256 136.452 81.062 136.452 73.7562C136.452 66.438 130.328 60.4867 122.797 60.4867V60.4867Z" fill="url(#paint3_linear_101_57)"/>
<defs>
<linearGradient id="paint0_linear_101_57" x1="0" y1="90" x2="180" y2="90" gradientUnits="userSpaceOnUse">
<stop stop-color="#191E88"/>
<stop offset="1" stop-color="#00AC00"/>
</linearGradient>
<linearGradient id="paint1_linear_101_57" x1="30.5" y1="108.018" x2="150.5" y2="108.018" gradientUnits="userSpaceOnUse">
<stop stop-color="#191E88"/>
<stop offset="1" stop-color="#00AC00"/>
</linearGradient>
<linearGradient id="paint2_linear_101_57" x1="41.6055" y1="79.3963" x2="109.328" y2="79.3963" gradientUnits="userSpaceOnUse">
<stop stop-color="#191E88"/>
<stop offset="1" stop-color="#00AC00"/>
</linearGradient>
<linearGradient id="paint3_linear_101_57" x1="109.143" y1="73.7562" x2="136.452" y2="73.7562" gradientUnits="userSpaceOnUse">
<stop stop-color="#191E88"/>
<stop offset="1" stop-color="#00AC00"/>
</linearGradient>
</defs>
</svg>
