<svg width="180" height="180" viewBox="0 0 180 180" fill="none" xmlns="http://www.w3.org/2000/svg">
<circle opacity="0.7" cx="90" cy="90" r="88.5" stroke="url(#paint0_linear_52_262)" stroke-width="3"/>
<path d="M70.8175 37C67.6263 37 65 39.6262 65 42.8175V77.6104C65 80.8016 67.6263 83.4279 70.8175 83.4279H109.182C112.373 83.4279 114.999 80.8016 114.999 77.6104V42.8175C114.999 39.6262 112.373 37 109.182 37L70.8175 37ZM86.4041 47.7582H93.5964C94.5158 47.7582 95.2608 48.5039 95.2615 49.4232V54.9541H100.792C101.712 54.9541 102.457 55.6998 102.457 56.6192V63.8115C102.457 64.7309 101.712 65.4758 100.792 65.4765H95.2615V71.0074C95.2615 71.9268 94.5158 72.6718 93.5964 72.6725L86.4041 72.6704C85.4847 72.6704 84.7391 71.9254 84.7391 71.006V65.4751H79.2082C78.2888 65.4751 77.5438 64.7295 77.5438 63.8101V56.6178C77.5438 55.6984 78.2895 54.9534 79.2089 54.9527H84.7398L84.7391 49.4226C84.7391 48.5032 85.4847 47.7582 86.4041 47.7575V47.7582Z" fill="url(#paint1_linear_52_262)"/>
<path d="M41.7857 51.2857C40.7994 51.2857 40 52.0851 40 53.0714V65.6621C40 66.6485 40.7994 67.4478 41.7857 67.4478H61.4286V51.2857H41.7857Z" fill="url(#paint2_linear_52_262)"/>
<path d="M118.572 51.2857V67.4478H138.215C139.201 67.4478 140.001 66.6485 140.001 65.6621V53.0714C140.001 52.0851 139.201 51.2857 138.215 51.2857H118.572Z" fill="url(#paint3_linear_52_262)"/>
<path d="M43.5723 71.0197V131.643C43.5723 134.58 45.9921 137 48.9294 137H72.1437V99.5C72.1437 98.5137 72.9431 97.7143 73.9294 97.7143H106.072C107.059 97.7143 107.858 98.5137 107.858 99.5V137H131.072C134.01 137 136.429 134.58 136.429 131.643V71.0197H118.572V77.6114C118.572 82.7622 114.334 87.0004 109.183 87.0004H70.8191C65.6683 87.0004 61.4301 82.7622 61.4301 77.6114V71.0197H43.5723ZM118.817 90.7107H125.96C126.433 90.7107 126.888 90.8991 127.222 91.2339C127.557 91.5687 127.745 92.0228 127.745 92.4964C127.745 92.9701 127.557 93.4242 127.222 93.759C126.888 94.0938 126.433 94.2822 125.96 94.2822H118.817C117.831 94.2822 117.031 93.4828 117.031 92.4964C117.031 91.5101 117.831 90.7107 118.817 90.7107ZM53.8794 91.7152H61.0223C61.4959 91.7152 61.95 91.9035 62.2848 92.2384C62.6196 92.5732 62.808 93.0273 62.808 93.5009C62.808 93.9745 62.6196 94.4286 62.2848 94.7635C61.95 95.0983 61.4959 95.2866 61.0223 95.2866H53.8794C52.8931 95.2866 52.0937 94.4872 52.0937 93.5009C52.0937 92.5146 52.8931 91.7152 53.8794 91.7152ZM75.7169 101.286V137H88.2169V101.286H75.7169ZM91.7883 101.286V137H104.288V101.286H91.7883ZM118.819 101.425H125.962C126.435 101.425 126.889 101.613 127.224 101.948C127.559 102.283 127.747 102.737 127.747 103.211C127.747 103.684 127.559 104.139 127.224 104.473C126.889 104.808 126.435 104.996 125.962 104.996H118.819C117.832 104.996 117.033 104.197 117.033 103.211C117.033 102.224 117.832 101.425 118.819 101.425V101.425ZM53.8812 102.43H61.0241C61.4977 102.43 61.9518 102.618 62.2866 102.953C62.6214 103.288 62.8098 103.742 62.8098 104.215C62.8098 104.689 62.6214 105.143 62.2866 105.478C61.9518 105.813 61.4977 106.001 61.0241 106.001H53.8812C52.8949 106.001 52.0955 105.202 52.0955 104.215C52.0955 103.229 52.8949 102.43 53.8812 102.43ZM118.819 112.139H125.962C126.435 112.139 126.889 112.328 127.224 112.663C127.559 112.997 127.747 113.451 127.747 113.925C127.747 114.399 127.559 114.853 127.224 115.188C126.889 115.522 126.435 115.711 125.962 115.711H118.819C117.832 115.711 117.033 114.911 117.033 113.925C117.033 112.939 117.832 112.139 118.819 112.139V112.139ZM53.8812 113.144H61.0241C61.4977 113.144 61.9518 113.332 62.2866 113.667C62.6214 114.002 62.8098 114.456 62.8098 114.93C62.8098 115.403 62.6214 115.857 62.2866 116.192C61.9518 116.527 61.4977 116.715 61.0241 116.715H53.8812C52.8949 116.715 52.0955 115.916 52.0955 114.93C52.0955 113.943 52.8949 113.144 53.8812 113.144ZM118.819 122.854H125.962C126.435 122.854 126.889 123.042 127.224 123.377C127.559 123.712 127.747 124.166 127.747 124.639C127.747 125.113 127.559 125.567 127.224 125.902C126.889 126.237 126.435 126.425 125.962 126.425H118.819C117.832 126.425 117.033 125.626 117.033 124.639C117.033 123.653 117.832 122.854 118.819 122.854V122.854ZM53.8812 123.858H61.0241C61.4977 123.858 61.9518 124.046 62.2866 124.381C62.6214 124.716 62.8098 125.17 62.8098 125.644C62.8098 126.117 62.6214 126.572 62.2866 126.906C61.9518 127.241 61.4977 127.43 61.0241 127.43H53.8812C52.8949 127.43 52.0955 126.63 52.0955 125.644C52.0955 124.657 52.8949 123.858 53.8812 123.858Z" fill="url(#paint4_linear_52_262)"/>
<defs>
<linearGradient id="paint0_linear_52_262" x1="0" y1="90" x2="180" y2="90" gradientUnits="userSpaceOnUse">
<stop stop-color="#191E88"/>
<stop offset="1" stop-color="#00AC00"/>
</linearGradient>
<linearGradient id="paint1_linear_52_262" x1="65" y1="60.2139" x2="114.999" y2="60.2139" gradientUnits="userSpaceOnUse">
<stop stop-color="#191E88"/>
<stop offset="1" stop-color="#00AC00"/>
</linearGradient>
<linearGradient id="paint2_linear_52_262" x1="40" y1="59.3668" x2="61.4286" y2="59.3668" gradientUnits="userSpaceOnUse">
<stop stop-color="#191E88"/>
<stop offset="1" stop-color="#00AC00"/>
</linearGradient>
<linearGradient id="paint3_linear_52_262" x1="118.572" y1="59.3668" x2="140.001" y2="59.3668" gradientUnits="userSpaceOnUse">
<stop stop-color="#191E88"/>
<stop offset="1" stop-color="#00AC00"/>
</linearGradient>
<linearGradient id="paint4_linear_52_262" x1="43.5723" y1="104.01" x2="136.429" y2="104.01" gradientUnits="userSpaceOnUse">
<stop stop-color="#191E88"/>
<stop offset="1" stop-color="#00AC00"/>
</linearGradient>
</defs>
</svg>
