<svg width="180" height="180" viewBox="0 0 180 180" fill="none" xmlns="http://www.w3.org/2000/svg">
<circle opacity="0.7" cx="90" cy="90" r="88.5" stroke="url(#paint0_linear_52_168)" stroke-width="3"/>
<path d="M116.243 97.1742C117.915 99.9312 118.904 103.294 119.102 106.691C122.326 107.421 124.74 110.297 124.74 113.728C124.74 117.711 121.493 120.95 117.501 120.95C113.51 120.95 110.263 117.711 110.263 113.728C110.263 110.344 112.611 107.503 115.765 106.724C115.444 102.117 113.367 97.4843 110.007 95.3445C109.192 95.2011 108.364 95.0848 107.526 95.0081C107.405 100.412 89.4945 113.658 89.4945 113.658C89.4952 113.657 71.5844 100.412 71.4671 95.0089C70.3989 95.1066 69.35 95.2655 68.3176 95.4732C65.7081 97.3333 63.6012 100.963 63.4854 105.371C64.1303 105.745 64.6523 106.322 64.9747 107.024C67.3535 108.144 69.4541 110.502 71.063 113.859C71.3326 114.425 71.3667 115.062 71.1702 115.644C72.1343 118.121 72.6859 120.828 72.6859 123.101C72.6859 126.287 72.6859 129.299 69.2055 130.072C68.8279 130.385 68.3572 130.556 67.8615 130.556H65.5364C64.3703 130.556 63.4225 129.608 63.4225 128.447C63.4482 127.262 64.3967 126.337 65.5364 126.337H67.8615C68.1008 126.337 68.3339 126.377 68.5576 126.456C68.6982 126.414 68.7425 126.382 68.7425 126.382C69.0012 125.924 69.0012 124.017 69.0012 123.102C69.0012 121.253 68.5382 119.023 67.7263 116.953C67.3045 116.714 66.9642 116.353 66.7552 115.916C65.3444 112.971 63.4272 111.068 61.8704 111.068C60.277 111.068 58.2641 113.125 56.861 116.183C56.6318 116.681 56.2294 117.088 55.7338 117.329C54.9996 119.315 54.5964 121.356 54.5964 123.1C54.5964 123.868 54.5964 125.91 54.8901 126.388H54.8909C54.894 126.388 54.96 126.428 55.1449 126.473C55.3865 126.38 55.6398 126.333 55.9023 126.333H58.2322C59.3478 126.333 60.2747 127.205 60.3437 128.319L60.3608 128.385L60.3476 128.444C60.3476 129.608 59.399 130.554 58.2337 130.554H55.9038C55.4416 130.554 54.9949 130.4 54.6274 130.119C53.2966 129.869 52.3598 129.282 51.7661 128.33C51.0468 127.179 50.9139 125.665 50.9139 123.098C50.9139 120.846 51.4352 118.254 52.3814 115.777C52.2424 115.247 52.289 114.694 52.5197 114.195C53.5063 112.044 54.7603 110.202 56.1461 108.87C56.9082 108.137 57.7262 107.548 58.5831 107.119C58.904 106.368 59.4633 105.753 60.1454 105.364C60.2115 102.444 61.0179 99.673 62.3409 97.3441C51.8406 101.912 44.5 112.355 44.5 124.515C44.4977 139.273 55.3063 140 69.4593 140C71.0022 140 72.5855 139.991 74.2014 139.991H104.797C106.407 139.991 107.992 140 109.537 140C123.689 140 134.5 139.275 134.5 124.518C134.5 112.199 126.963 101.645 116.244 97.1746L116.243 97.1742Z" fill="url(#paint1_linear_52_168)"/>
<path d="M89.4969 98.8766C103.179 98.8766 114.265 78.3529 114.265 64.7102C114.265 51.0624 103.178 40 89.4969 40C75.8194 40 64.7305 51.063 64.7305 64.7102C64.7297 78.3555 75.8212 98.8766 89.4969 98.8766ZM74.7007 53.6071C78.4002 64.8413 103.956 59.7834 103.956 59.7834C111.317 59.2231 110.784 69.3189 110.775 69.4304C108.831 80.9468 100.044 95.0076 89.4971 95.0076C78.5534 95.0076 69.5018 79.8555 68.0301 68.1288C69.1861 58.1741 74.7003 53.6069 74.7003 53.6069L74.7007 53.6071Z" fill="url(#paint2_linear_52_168)"/>
<path d="M120.844 113.728C120.844 115.568 119.349 117.061 117.503 117.061C115.658 117.061 114.162 115.569 114.162 113.728C114.162 111.887 115.658 110.394 117.503 110.394C119.349 110.394 120.844 111.887 120.844 113.728Z" fill="url(#paint3_linear_52_168)"/>
<defs>
<linearGradient id="paint0_linear_52_168" x1="0" y1="90" x2="180" y2="90" gradientUnits="userSpaceOnUse">
<stop stop-color="#191E88"/>
<stop offset="1" stop-color="#00AC00"/>
</linearGradient>
<linearGradient id="paint1_linear_52_168" x1="44.5" y1="117.504" x2="134.5" y2="117.504" gradientUnits="userSpaceOnUse">
<stop stop-color="#191E88"/>
<stop offset="1" stop-color="#00AC00"/>
</linearGradient>
<linearGradient id="paint2_linear_52_168" x1="64.7305" y1="69.4383" x2="114.265" y2="69.4383" gradientUnits="userSpaceOnUse">
<stop stop-color="#191E88"/>
<stop offset="1" stop-color="#00AC00"/>
</linearGradient>
<linearGradient id="paint3_linear_52_168" x1="114.162" y1="113.728" x2="120.844" y2="113.728" gradientUnits="userSpaceOnUse">
<stop stop-color="#191E88"/>
<stop offset="1" stop-color="#00AC00"/>
</linearGradient>
</defs>
</svg>
