<svg width="180" height="180" viewBox="0 0 180 180" fill="none" xmlns="http://www.w3.org/2000/svg">
<circle opacity="0.7" cx="90" cy="90" r="88.5" stroke="url(#paint0_linear_52_159)" stroke-width="3"/>
<path d="M136.698 45.4801C137.849 44.1115 137.745 42.1115 136.489 40.8486C135.129 39.5857 133.141 39.7957 131.886 41.0593L126.551 46.9535C125.296 48.322 123.518 49.1642 121.635 49.1642L110.546 49.1635C108.768 49.1635 107.303 50.637 107.303 52.4263C107.303 54.2155 108.768 55.689 110.546 55.689H121.635L108.035 100.212C95.1684 94.6338 80.7322 89.1603 71.0035 87.6867L69.434 68.9519H76.8616C78.9536 68.9519 80.6275 67.3733 80.6275 65.3733C80.6275 63.5841 79.2674 62.0048 77.3848 61.7948L58.9738 59.3741C57.405 59.1634 55.8353 59.5848 54.6846 60.637C53.6382 61.5841 53.0107 62.8477 53.0107 64.2155C53.0107 66.8469 55.3121 69.0576 58.1367 69.0576L62.8432 69.0569L64.4121 87.5818C51.7547 88.7404 41.7119 99.8974 42.5488 113.159C43.1763 123.474 50.6038 131.79 60.1227 134.631V136.631C60.1227 138.421 61.5872 140 63.4706 140H65.772C67.5502 140 69.1198 138.526 69.1198 136.631V135.789H105.21V136.631C105.21 138.421 106.674 140 108.558 140H110.859C112.638 140 114.207 138.526 114.207 136.631V135.789H114.625H114.939C131.258 135.474 135.547 112.843 120.797 105.897C118.705 104.949 116.508 103.896 114.311 102.949L129.166 54.1104L136.698 45.4801ZM77.1758 126.422H69.0163C68.075 126.422 67.2381 125.58 67.2381 124.633C67.2381 123.686 68.075 122.844 69.0163 122.844H70.6902L68.1794 116.844C67.8657 116.844 67.5519 116.949 67.2381 116.949C63.2628 116.949 60.1251 113.791 60.1251 109.792C60.1251 105.792 63.2635 102.635 67.2381 102.635C71.2135 102.635 74.3512 105.792 74.3512 109.792C74.3512 112.107 73.2004 114.212 71.5265 115.475L74.665 122.843H77.2802C78.2215 122.843 79.0585 123.685 79.0585 124.632C79.0585 125.58 78.2215 126.422 77.1759 126.422L77.1758 126.422Z" fill="url(#paint1_linear_52_159)"/>
<defs>
<linearGradient id="paint0_linear_52_159" x1="0" y1="90" x2="180" y2="90" gradientUnits="userSpaceOnUse">
<stop stop-color="#191E88"/>
<stop offset="1" stop-color="#00AC00"/>
</linearGradient>
<linearGradient id="paint1_linear_52_159" x1="42.5" y1="90" x2="137.5" y2="90" gradientUnits="userSpaceOnUse">
<stop stop-color="#191E88"/>
<stop offset="1" stop-color="#00AC00"/>
</linearGradient>
</defs>
</svg>
