<svg width="11" height="16" viewBox="0 0 11 16" fill="none" xmlns="http://www.w3.org/2000/svg">
<path d="M5.5 0C4.04131 0 2.64236 0.581182 1.61091 1.61569C0.579463 2.6502 0 4.0533 0 5.51632C0 8.34619 4.532 15.0099 5.049 15.7601C5.09951 15.8341 5.16722 15.8946 5.24629 15.9364C5.32535 15.9782 5.41338 16 5.50275 16C5.59212 16 5.68015 15.9782 5.75921 15.9364C5.83828 15.8946 5.90599 15.8341 5.9565 15.7601C6.468 15.0099 11 8.34619 11 5.51632C11 4.0533 10.4205 2.6502 9.38909 1.61569C8.35764 0.581182 6.95869 0 5.5 0ZM5.5 8.82611C4.84732 8.82611 4.2093 8.63199 3.66662 8.2683C3.12394 7.90462 2.70097 7.3877 2.4512 6.78292C2.20143 6.17813 2.13608 5.51264 2.26341 4.87061C2.39074 4.22857 2.70503 3.63882 3.16655 3.17594C3.62806 2.71306 4.21606 2.39783 4.8562 2.27012C5.49634 2.14241 6.15986 2.20796 6.76286 2.45847C7.36585 2.70898 7.88124 3.1332 8.24385 3.6775C8.60646 4.22179 8.8 4.8617 8.8 5.51632C8.8 6.39413 8.45232 7.23598 7.83345 7.85669C7.21458 8.4774 6.37521 8.82611 5.5 8.82611Z" fill="#00AC00"/>
<path d="M5.5 0C4.04131 0 2.64236 0.581182 1.61091 1.61569C0.579463 2.6502 0 4.0533 0 5.51632C0 8.34619 4.532 15.0099 5.049 15.7601C5.09951 15.8341 5.16722 15.8946 5.24629 15.9364C5.32535 15.9782 5.41338 16 5.50275 16C5.59212 16 5.68015 15.9782 5.75921 15.9364C5.83828 15.8946 5.90599 15.8341 5.9565 15.7601C6.468 15.0099 11 8.34619 11 5.51632C11 4.0533 10.4205 2.6502 9.38909 1.61569C8.35764 0.581182 6.95869 0 5.5 0ZM5.5 8.82611C4.84732 8.82611 4.2093 8.63199 3.66662 8.2683C3.12394 7.90462 2.70097 7.3877 2.4512 6.78292C2.20143 6.17813 2.13608 5.51264 2.26341 4.87061C2.39074 4.22857 2.70503 3.63882 3.16655 3.17594C3.62806 2.71306 4.21606 2.39783 4.8562 2.27012C5.49634 2.14241 6.15986 2.20796 6.76286 2.45847C7.36585 2.70898 7.88124 3.1332 8.24385 3.6775C8.60646 4.22179 8.8 4.8617 8.8 5.51632C8.8 6.39413 8.45232 7.23598 7.83345 7.85669C7.21458 8.4774 6.37521 8.82611 5.5 8.82611Z" fill="#1D24B1"/>
</svg>
