<svg width="16" height="17" viewBox="0 0 16 17" fill="none" xmlns="http://www.w3.org/2000/svg">
<path d="M15.8802 11.8432C15.6992 11.586 15.4524 11.3927 15.1708 11.2878L14.9718 11.183C14.9525 11.183 12.8115 10.0336 12.4039 9.87292C12.1021 9.75414 11.4794 9.52357 11.0108 10.2677C10.8021 10.617 10.1698 11.41 9.87767 11.7699C9.85199 11.8013 9.83274 11.8153 9.83274 11.8188C9.76697 11.8074 9.7038 11.7825 9.64656 11.7454C9.58236 11.7105 9.48928 11.6685 9.38014 11.6161C8.42821 11.1976 7.54809 10.607 6.77692 9.86942C6.00691 9.10725 5.34586 8.22414 4.81567 7.24934L4.77073 7.19344C4.8036 7.15026 4.83898 7.10942 4.87666 7.07117C5.00506 6.93493 5.14308 6.75327 5.27469 6.58209L5.46086 6.34454C5.61616 6.14447 5.74574 5.92235 5.84605 5.68427L5.8942 5.57598C5.97885 5.3942 6.02055 5.19232 6.0155 4.98859C6.01046 4.78487 5.95884 4.58572 5.86531 4.40917C5.80753 4.2869 5.42555 3.29126 5.14629 2.56463L4.73863 1.49913C4.39518 0.615283 3.95221 0.503493 3.54134 0.5H3.48678C3.26208 0.5 3.0085 0.5 2.75171 0.5C2.49864 0.504451 2.24914 0.565699 2.01883 0.67991C1.78851 0.794122 1.58233 0.958839 1.41318 1.16375L1.34578 1.24061C0.909256 1.70698 0.564813 2.26542 0.333549 2.88174C0.102284 3.49806 -0.0109337 4.15928 0.00083134 4.82489C0.00083134 6.73231 1.12429 8.54541 1.60578 9.2406L1.66035 9.32794C2.73245 10.9699 4.99543 13.9428 8.12186 15.3891C8.82544 15.7145 9.5444 15.999 10.2757 16.2415C10.786 16.4141 11.3174 16.5013 11.8518 16.5C12.1743 16.4995 12.4962 16.4715 12.8147 16.4161C13.5819 16.2939 15.2928 15.3995 15.7036 14.1943C15.9701 13.3908 16.1209 12.2974 15.877 11.8572L15.8802 11.8432ZM14.8017 13.8205C14.5802 14.4773 13.3219 15.2633 12.6863 15.3681C11.9795 15.4962 11.2552 15.4485 10.5678 15.2284C9.86741 14.9945 9.17851 14.7217 8.50384 14.4109C5.59568 13.0659 3.46431 10.2607 2.45319 8.70611C2.41788 8.65021 2.3922 8.61178 2.37294 8.58733C2.05195 8.11571 0.963799 6.44585 0.963799 4.81091C0.954493 4.27787 1.04665 3.74849 1.23447 3.25609C1.4223 2.7637 1.70172 2.31893 2.05516 1.94978L2.1322 1.86244C2.21277 1.76269 2.31135 1.68205 2.4218 1.62556C2.53224 1.56906 2.65219 1.53792 2.77418 1.53406C3.01492 1.53406 3.25245 1.53406 3.4611 1.53406H3.57023C3.67295 1.53406 3.73394 1.53406 3.87196 1.8834C3.97468 2.14541 4.12554 2.53319 4.28283 2.93144C4.70333 4.02838 4.96333 4.70611 5.02752 4.84585C5.09172 4.98559 5.07888 5.02401 5.05962 5.06593L5.00506 5.17772C4.94308 5.3377 4.85862 5.4862 4.75468 5.6179L4.55888 5.87292C4.45838 6.01505 4.35124 6.15148 4.23789 6.28165C4.0395 6.44769 3.90518 6.68835 3.86125 6.9565C3.81732 7.22465 3.86692 7.501 4.00036 7.73143C4.58162 8.801 5.30773 9.76909 6.1542 10.603C7.00115 11.4189 7.96792 12.0743 9.01421 12.5419L9.23569 12.6467C9.45045 12.797 9.70795 12.8574 9.96052 12.817C10.2131 12.7765 10.4437 12.6378 10.6095 12.4266C10.7957 12.1996 11.5468 11.2563 11.8197 10.8196C11.8453 10.7777 11.8646 10.7568 11.8678 10.7498C11.9447 10.7645 12.02 10.7879 12.0925 10.8196C12.3814 10.9314 14.0891 11.8292 14.5705 12.0843L14.7792 12.1961C14.8787 12.245 14.9942 12.3078 15.0617 12.3498C15.0652 12.8539 14.9768 13.3538 14.8017 13.8205Z" fill="white"/>
</svg>
