<svg width="13" height="19" viewBox="0 0 13 19" fill="none" xmlns="http://www.w3.org/2000/svg">
<path d="M6.12 0.5C4.49687 0.5 2.94023 1.15383 1.79251 2.31765C0.644784 3.48148 0 5.05996 0 6.70585C0 9.88946 5.04288 17.3861 5.61816 18.2301C5.67436 18.3133 5.74971 18.3814 5.83769 18.4284C5.92566 18.4754 6.02361 18.5 6.12306 18.5C6.22251 18.5 6.32046 18.4754 6.40843 18.4284C6.49641 18.3814 6.57176 18.3133 6.62796 18.2301C7.19712 17.3861 12.24 9.88946 12.24 6.70585C12.24 5.05996 11.5952 3.48148 10.4475 2.31765C9.29977 1.15383 7.74312 0.5 6.12 0.5ZM6.12 10.4294C5.39375 10.4294 4.6838 10.211 4.07995 9.80184C3.47609 9.3927 3.00544 8.81116 2.72751 8.13078C2.44959 7.4504 2.37687 6.70172 2.51856 5.97943C2.66024 5.25714 3.00997 4.59368 3.5235 4.07293C4.03704 3.55219 4.69133 3.19756 5.40363 3.05389C6.11593 2.91022 6.85424 2.98395 7.52521 3.26578C8.19618 3.5476 8.76967 4.02485 9.17316 4.63718C9.57664 5.24951 9.792 5.96941 9.792 6.70585C9.792 7.69339 9.40513 8.64048 8.7165 9.33878C8.02786 10.0371 7.09387 10.4294 6.12 10.4294Z" fill="white"/>
</svg>
