<svg width="1920" height="60" viewBox="0 0 1920 60" fill="none" xmlns="http://www.w3.org/2000/svg">
<path fill-rule="evenodd" clip-rule="evenodd" d="M1000 60C973.979 41.6651 959.645 21.6121 959.645 0.599792C959.645 0.399775 959.646 0.199843 959.648 0H0V60H1000Z" fill="#1D24B1"/>
<path fill-rule="evenodd" clip-rule="evenodd" d="M1020.37 60H1920V0H980.004C980.001 0.199874 980 0.399836 980 0.599884C980 21.6121 994.34 41.6651 1020.37 60Z" fill="#00AC00"/>
<path opacity="0.5" fill-rule="evenodd" clip-rule="evenodd" d="M1151 55C1164.81 55 1176 43.8071 1176 30C1176 16.1929 1164.81 5 1151 5C1137.19 5 1126 16.1929 1126 30C1126 43.8071 1137.19 55 1151 55ZM1151 45C1159.28 45 1166 38.2843 1166 30C1166 21.7157 1159.28 15 1151 15C1142.72 15 1136 21.7157 1136 30C1136 38.2843 1142.72 45 1151 45Z" fill="white"/>
<path opacity="0.5" fill-rule="evenodd" clip-rule="evenodd" d="M1151 65C1170.33 65 1186 49.33 1186 30C1186 10.67 1170.33 -5 1151 -5C1131.67 -5 1116 10.67 1116 30C1116 49.33 1131.67 65 1151 65ZM1151 51C1162.6 51 1172 41.598 1172 30C1172 18.402 1162.6 9 1151 9C1139.4 9 1130 18.402 1130 30C1130 41.598 1139.4 51 1151 51Z" fill="white"/>
<path opacity="0.4" fill-rule="evenodd" clip-rule="evenodd" d="M775 25C788.807 25 800 13.8071 800 0C800 -13.8071 788.807 -25 775 -25C761.193 -25 750 -13.8071 750 0C750 13.8071 761.193 25 775 25ZM775 15C783.284 15 790 8.28427 790 0C790 -8.28427 783.284 -15 775 -15C766.716 -15 760 -8.28427 760 0C760 8.28427 766.716 15 775 15Z" fill="white"/>
<path opacity="0.4" fill-rule="evenodd" clip-rule="evenodd" d="M775 35C794.33 35 810 19.33 810 0C810 -19.33 794.33 -35 775 -35C755.67 -35 740 -19.33 740 0C740 19.33 755.67 35 775 35ZM775 21C786.598 21 796 11.598 796 0C796 -11.598 786.598 -21 775 -21C763.402 -21 754 -11.598 754 0C754 11.598 763.402 21 775 21Z" fill="white"/>
<path opacity="0.4" fill-rule="evenodd" clip-rule="evenodd" d="M1811 25C1824.81 25 1836 13.8071 1836 0C1836 -13.8071 1824.81 -25 1811 -25C1797.19 -25 1786 -13.8071 1786 0C1786 13.8071 1797.19 25 1811 25ZM1811 15C1819.28 15 1826 8.28427 1826 0C1826 -8.28427 1819.28 -15 1811 -15C1802.72 -15 1796 -8.28427 1796 0C1796 8.28427 1802.72 15 1811 15Z" fill="white"/>
<path opacity="0.4" fill-rule="evenodd" clip-rule="evenodd" d="M1811 35C1830.33 35 1846 19.33 1846 0C1846 -19.33 1830.33 -35 1811 -35C1791.67 -35 1776 -19.33 1776 0C1776 19.33 1791.67 35 1811 35ZM1811 21C1822.6 21 1832 11.598 1832 0C1832 -11.598 1822.6 -21 1811 -21C1799.4 -21 1790 -11.598 1790 0C1790 11.598 1799.4 21 1811 21Z" fill="white"/>
<path opacity="0.4" fill-rule="evenodd" clip-rule="evenodd" d="M203 94C216.807 94 228 82.8071 228 69C228 55.1929 216.807 44 203 44C189.193 44 178 55.1929 178 69C178 82.8071 189.193 94 203 94ZM203 84C211.284 84 218 77.2843 218 69C218 60.7157 211.284 54 203 54C194.716 54 188 60.7157 188 69C188 77.2843 194.716 84 203 84Z" fill="white"/>
<path opacity="0.4" fill-rule="evenodd" clip-rule="evenodd" d="M203 104C222.33 104 238 88.33 238 69C238 49.67 222.33 34 203 34C183.67 34 168 49.67 168 69C168 88.33 183.67 104 203 104ZM203 90C214.598 90 224 80.598 224 69C224 57.402 214.598 48 203 48C191.402 48 182 57.402 182 69C182 80.598 191.402 90 203 90Z" fill="white"/>
</svg>
