<svg width="70" height="70" viewBox="0 0 70 70" fill="none" xmlns="http://www.w3.org/2000/svg">
<path fill-rule="evenodd" clip-rule="evenodd" d="M65.242 17.3698C59.2964 8.69273 49.313 3 38 3C19.7746 3 5 17.7746 5 36C5 54.2254 19.7746 69 38 69C41.7025 69 45.2626 68.3902 48.5853 67.2657C44.4082 69.0266 39.8178 70 35 70C15.67 70 0 54.33 0 35C0 15.67 15.67 0 35 0C47.9011 0 59.172 6.98013 65.242 17.3698Z" fill="#1D24B1"/>
<path d="M28.9803 25.8406C28.3216 25.9547 28.0197 27.3696 28.3093 28.9978C28.5749 30.4933 29.2446 31.6506 29.8675 31.7383C30.6559 33.8694 31.9056 35.9409 33.4508 37.452C34.3235 38.3116 35.2926 38.9893 36.324 39.4016C37.0345 39.6828 37.7756 39.8406 38.5384 39.8406C39.2993 39.8406 40.0404 39.684 40.7501 39.4016C41.8189 38.9744 42.8203 38.2635 43.7167 37.3635C45.2236 35.854 46.4447 33.8148 47.2148 31.7209C47.8115 31.5448 48.435 30.4265 48.689 28.9968C48.9629 27.4457 48.7045 26.0931 48.1079 25.8684C48.1295 25.4892 48.1434 25.106 48.1406 24.7145C48.1279 19.0932 44.8441 15.3812 39.6684 15.0336C35.1546 14.7282 31.7552 16.5288 30.2065 19.5201C29.684 20.5265 29.3885 22.2309 29.273 23.5984C29.0991 24.3112 28.9981 25.0518 28.9981 25.8179H29.0164C29.0164 25.825 29.0154 25.8309 29.0136 25.8362C29.0012 25.8371 28.9923 25.838 28.9802 25.8402L28.9803 25.8406ZM30.4271 27.0655C30.4978 27.0534 30.57 27.0664 30.6432 27.0971C30.6967 27.1194 30.7504 27.1501 30.8038 27.1932H30.8047C30.8047 27.1833 30.8057 27.1731 30.8066 27.1644C30.831 26.9275 31.019 25.6549 31.8099 24.6461C32.3401 23.9675 33.1463 23.4108 34.3559 23.3648C34.5446 23.3574 34.7416 23.3605 34.9504 23.38C34.9504 23.38 36.3703 23.9027 38.1607 23.9284C39.0185 23.9408 39.9609 23.841 40.8757 23.5121C41.0072 23.5093 41.136 23.508 41.2635 23.5077C41.4303 23.5068 41.5936 23.508 41.7483 23.513C42.8295 23.5539 43.5965 24.076 44.3694 24.4641C44.4318 24.4951 44.4933 24.5277 44.556 24.5565C44.5294 24.1997 44.2771 23.8372 44.2496 23.5765C44.2475 23.5548 44.2434 23.5322 44.2447 23.512C44.3787 23.5501 44.4998 23.6084 44.6174 23.6711C45.2134 24.3088 45.7902 25.3746 46.2506 27.1026C46.2574 27.1259 46.2636 27.1457 46.2698 27.169V27.1904C46.2732 27.1894 46.2732 27.1894 46.276 27.1882V27.1904L46.284 27.182C46.3445 27.1346 46.4066 27.0983 46.4674 27.0788C46.4829 27.0729 46.498 27.0716 46.5131 27.0707C46.5307 27.0698 46.5486 27.0698 46.5662 27.0679C46.5931 27.066 46.6252 27.0567 46.6496 27.0608H46.6524C46.6817 27.0657 46.7129 27.0772 46.7404 27.0877C47.0273 27.2251 47.1934 27.7673 47.1795 28.4664C47.1761 28.698 47.1517 28.9478 47.1051 29.2061C47.094 29.2746 47.0767 29.3335 47.06 29.3998C46.9078 30.1002 46.6283 30.674 46.3312 30.9283C46.2648 30.9865 46.1923 31.0278 46.1247 31.0495C46.0604 31.0712 45.9983 31.0795 45.9351 31.0687C45.9258 31.0674 45.9165 31.0616 45.9073 31.0594C45.8492 31.0442 45.7921 31.0141 45.7427 30.9664C45.7334 30.9943 45.722 31.0225 45.7127 31.0504C44.9898 33.2571 43.641 35.4443 41.9419 36.7805C41.6869 36.9792 41.425 37.1599 41.157 37.3186C40.3399 37.8004 39.4598 38.0844 38.5433 38.0844C38.5149 38.0844 38.4865 38.081 38.4584 38.08C37.2967 38.0577 36.1945 37.5908 35.2094 36.8344C33.4567 35.4874 32.0655 33.2323 31.341 30.9661C31.2972 31.0064 31.249 31.0324 31.1993 31.0501C31.1817 31.0563 31.1647 31.0653 31.1465 31.0684C31.0983 31.0774 31.0483 31.0715 30.9983 31.0591C30.8961 31.0337 30.7917 30.9708 30.691 30.8703C30.3859 30.564 30.1092 29.948 29.9777 29.2067C29.9687 29.1578 29.9632 29.1116 29.957 29.0623C29.9598 28.548 29.9839 28.0455 30.0175 27.5491C30.0817 27.3581 30.1673 27.2096 30.2797 27.1306C30.3198 27.1027 30.3643 27.0847 30.4091 27.0742C30.4128 27.0729 30.4196 27.0667 30.427 27.0655L30.4271 27.0655Z" fill="#1D24B1"/>
<path d="M38.4797 54.9999H38.5229C46.2096 54.9999 54.9937 53.909 56.608 50.8454C56.7645 50.5512 56.8578 50.229 56.9254 49.8973C57.0378 49.3226 57.0282 48.7177 56.8621 48.1362C56.209 45.8687 55.386 44.3109 54.5381 43.2128C52.8909 41.0764 51.1573 40.732 50.4187 40.5906C50.3279 40.5742 50.2526 40.5596 50.1911 40.5444C50.1176 40.5271 50.0392 40.5165 49.9644 40.5014C49.9827 40.5382 50.0033 40.5723 50.0213 40.6102C50.2186 41.0337 50.356 41.4745 50.4298 41.9231C50.5573 41.9665 50.675 42.0173 50.7871 42.0778C51.9806 42.7186 52.4327 44.2163 51.7941 45.4152C51.3655 46.2197 50.5344 46.7188 49.6263 46.7188C49.2251 46.7188 48.8246 46.6181 48.4692 46.4268C47.8905 46.1164 47.4674 45.5984 47.2775 44.9675C47.0876 44.3372 47.1531 43.67 47.4622 43.0897C47.7694 42.5134 48.2935 42.0893 48.9209 41.9008C48.782 41.3527 48.4899 40.7367 48.0298 40.2742C47.8816 40.2649 47.7324 40.255 47.5894 40.2466C46.9184 40.2066 46.2776 40.1719 45.757 40.0671C45.1508 41.6773 38.5032 46.4039 38.5032 46.4039C38.5032 46.4036 31.8565 41.677 31.2503 40.0668C30.7263 40.1716 30.0856 40.2091 29.4154 40.2481C29.2953 40.2553 29.1693 40.2627 29.0455 40.2708C28.527 40.7293 28.1503 41.3307 28.0021 41.8543C28.1988 42.0007 28.3584 42.1991 28.4634 42.4313C29.4096 42.8792 30.2442 43.8223 30.8841 45.165C30.9913 45.3913 31.0048 45.6465 30.9267 45.8793C31.3099 46.8697 31.5292 47.9527 31.5292 48.862C31.5292 50.1362 31.5292 51.3412 30.1458 51.6503C29.9957 51.7755 29.8085 51.844 29.6115 51.844H28.6873C28.2238 51.844 27.8467 51.4649 27.8467 51.0002L27.8477 50.9673C27.8653 50.5187 28.2395 50.1563 28.6876 50.1563H29.6118C29.7066 50.1563 29.799 50.1724 29.8882 50.2037C29.9444 50.1876 29.9617 50.1749 29.962 50.1742C30.0648 49.991 30.0648 49.2284 30.0648 48.8623C30.0648 48.1235 29.8808 47.2316 29.5581 46.4026C29.3904 46.3071 29.2552 46.1626 29.1721 45.9878C28.6113 44.8097 27.8492 44.0486 27.2301 44.0486C26.5967 44.0486 25.7966 44.8714 25.2389 46.0947C25.1478 46.2943 24.9878 46.4565 24.7908 46.5532C24.499 47.3465 24.3387 48.1628 24.3387 48.8613C24.3387 49.1688 24.3387 49.9854 24.456 50.1767C24.4573 50.1767 24.4835 50.1928 24.557 50.2108C24.6527 50.1739 24.7553 50.1547 24.8581 50.1547H25.7842C26.2162 50.1547 26.5763 50.4848 26.6201 50.9133L26.6251 50.9657C26.6251 51.4639 26.248 51.8431 25.7848 51.8431H24.8587C24.675 51.8431 24.4974 51.7817 24.3513 51.6691C23.8223 51.569 23.45 51.3349 23.2137 50.9536C22.9277 50.4926 22.8755 49.8874 22.8755 48.8607C22.8755 47.9597 23.0827 46.9231 23.4589 45.9323C23.4036 45.7202 23.4221 45.4989 23.5138 45.2995C23.906 44.4392 24.4044 43.7023 24.9553 43.1694C25.2582 42.8764 25.5834 42.6408 25.924 42.4691C26.0485 42.177 26.26 41.9312 26.5212 41.7749C26.595 41.3564 26.7578 40.9249 26.9888 40.51C26.9319 40.5215 26.8723 40.5295 26.8171 40.5426C26.7547 40.5562 26.6784 40.5711 26.5886 40.5888C25.8919 40.7242 24.3077 41.0287 22.7449 42.8593C21.8024 43.9633 20.8686 45.6197 20.1413 48.1309C19.9598 48.7568 19.9588 49.4165 20.1058 50.0319C20.1741 50.3115 20.263 50.5884 20.397 50.8436C22.0062 53.909 30.7949 55 38.4797 55L38.4797 54.9999Z" fill="#1D24B1"/>
</svg>
