<svg width="70" height="70" viewBox="0 0 70 70" fill="none" xmlns="http://www.w3.org/2000/svg">
<path fill-rule="evenodd" clip-rule="evenodd" d="M65.242 17.3698C59.2964 8.69273 49.313 3 38 3C19.7746 3 5 17.7746 5 36C5 54.2254 19.7746 69 38 69C41.7025 69 45.2626 68.3902 48.5853 67.2657C44.4082 69.0266 39.8178 70 35 70C15.67 70 0 54.33 0 35C0 15.67 15.67 0 35 0C47.9011 0 59.172 6.98013 65.242 17.3698Z" fill="#1D24B1"/>
<path fill-rule="evenodd" clip-rule="evenodd" d="M17 37.6751V32.274C17 30.8981 18.1211 29.7771 19.5478 29.7771H31.7771V17.5478C31.7771 16.1211 32.8982 15 34.274 15H39.6751C41.1018 15 42.2229 16.1211 42.2229 17.5478V29.7771H54.4522C55.828 29.7771 57 30.8982 57 32.274V37.6751C57 39.1018 55.828 40.2229 54.4522 40.2229H42.2229V52.4522C42.2229 53.828 41.1018 55 39.6751 55H34.274C32.8981 55 31.7771 53.828 31.7771 52.4522V40.2229H19.5478C18.1211 40.2229 17 39.1018 17 37.6751Z" fill="#1D24B1"/>
</svg>
