<svg width="70" height="70" viewBox="0 0 70 70" fill="none" xmlns="http://www.w3.org/2000/svg">
<path fill-rule="evenodd" clip-rule="evenodd" d="M65.242 17.3698C59.2964 8.69273 49.313 3 38 3C19.7746 3 5 17.7746 5 36C5 54.2254 19.7746 69 38 69C41.7025 69 45.2626 68.3902 48.5853 67.2657C44.4082 69.0266 39.8178 70 35 70C15.67 70 0 54.33 0 35C0 15.67 15.67 0 35 0C47.9011 0 59.172 6.98013 65.242 17.3698Z" fill="#1D24B1"/>
<path d="M36.8736 23.9179C36.9945 24.0446 37.1561 24.2215 37.367 24.4578C37.4342 24.5329 37.5077 24.616 37.5849 24.7036C38.4843 24.7296 39.2787 24.7656 39.8911 24.7982V27.3746C40.3218 27.8799 40.6244 28.2368 40.6278 28.2407C40.8969 28.558 41.0582 28.9642 41.0814 29.3824L41.0981 29.691C41.3572 29.6977 41.6152 29.7016 41.8643 29.7016C45.9804 29.7016 48.639 28.7505 48.8025 27.2195L49.1915 27.157C49.1895 27.1916 49.1898 27.2259 49.1862 27.2608C48.982 29.1699 45.9088 30.222 40.9635 30.0741C40.1943 30.0499 39.5426 30.6612 39.5194 31.4366C39.4966 32.2119 40.1057 32.8596 40.8799 32.8827C41.2199 32.8931 41.5512 32.8978 41.876 32.8978C46.7779 32.8975 49.9582 31.7426 51.3355 29.4594C51.8379 28.6263 52.0549 27.6737 51.9891 26.7063C51.9365 25.9298 51.7024 25.1438 51.2848 24.4028C50.5462 23.0917 49.4253 22.2359 48.2979 22.095C48.2085 22.0763 48.1157 22.0662 48.0207 22.0662H47.6421C46.8622 22.8218 45.8012 23.288 44.6329 23.288C43.4646 23.288 42.4036 22.8215 41.6237 22.0662H41.2696C40.711 22.0258 38.599 21.8849 36.0552 21.8617C35.9853 22.3296 35.8398 22.773 35.6328 23.1798C36.0703 23.2677 36.486 23.5126 36.873 23.9178L36.8736 23.9179Z" fill="#1D24B1"/>
<path d="M26.6721 23.9179C27.0588 23.513 27.4748 23.2681 27.9111 23.1813C27.8 22.9629 27.7061 22.7343 27.6325 22.4963C27.3625 22.5588 27.1043 22.6269 26.8618 22.7011C26.121 22.9283 25.7042 23.714 25.9309 24.4556C25.9516 24.5234 25.9786 24.5873 26.0078 24.6492C26.0675 24.5817 26.1249 24.517 26.1781 24.4575C26.3895 24.2215 26.5509 24.0449 26.6721 23.9179H26.6721Z" fill="#1D24B1"/>
<path d="M22.1538 35.0294C22.1725 35.0551 22.1892 35.0813 22.2109 35.1051C22.3319 35.2365 22.4904 35.3177 22.6631 35.3461L22.6085 36.3411C22.5723 37.0016 22.9983 37.5786 23.6035 37.7616L22.8654 54.2989L22.6464 54.2891L22.6171 54.947L23.7996 54.9998L23.8289 54.3418L23.6099 54.3321L24.3482 37.7798C24.9297 37.6348 25.3752 37.1255 25.4098 36.495L25.4661 35.4682L25.5179 35.4704L25.5494 35.471C25.7177 35.471 25.8723 35.4171 26.0005 35.3278C26.1961 35.1911 26.3276 34.9693 26.3382 34.7126C26.3465 34.5022 26.2724 34.3008 26.1292 34.1454C26.1105 34.1253 26.0888 34.1091 26.0685 34.0912C25.9328 33.971 25.7639 33.8987 25.5814 33.8912L25.5527 33.8901L25.7639 30.0376C26.188 29.5384 26.6202 29.0323 27.0286 28.5571V35.4784L27.0289 46.8749C27.0289 48.0744 27.9998 49.046 29.1969 49.046C30.3944 49.046 31.3654 48.0742 31.3654 46.8749V36.8356H32.1781V52.6892C32.1781 53.8887 33.1491 54.8603 34.3461 54.8603C35.5437 54.8603 36.5146 53.8885 36.5146 52.6892V28.5577C36.9231 29.0328 37.3549 29.5387 37.7791 30.0379L37.9903 33.8903L37.9616 33.8915C37.7788 33.8987 37.6099 33.9713 37.4742 34.0915C37.4539 34.1094 37.4325 34.1253 37.4135 34.1456C37.2703 34.3011 37.1962 34.5025 37.2045 34.7129C37.2148 34.9699 37.3466 35.1917 37.5422 35.3281C37.6701 35.4177 37.825 35.4713 37.9933 35.4713L38.0769 35.4679L38.1332 36.4953C38.1677 37.1259 38.6133 37.6351 39.1948 37.7801L39.9331 54.3324L39.7141 54.3421L39.7434 55.0001L40.9259 54.9473L40.8966 54.2894L40.6776 54.2992L39.9395 37.7619C40.545 37.5789 40.9707 37.0016 40.9345 36.3414L40.8799 35.3464C41.0526 35.3182 41.2111 35.2368 41.3321 35.1054C41.3538 35.0819 41.3708 35.0554 41.3892 35.0297L41.4594 36.3124C41.5003 37.0605 41.1114 37.7463 40.4808 38.1003L41.0791 51.5033C41.3733 51.6528 41.7051 51.7387 42.0576 51.7387C43.2551 51.7387 44.2261 50.767 44.2261 49.5677V36.7926H45.0389V52.6462C45.0389 53.8458 46.0099 54.8173 47.2069 54.8173C48.4044 54.8173 49.3754 53.8455 49.3754 52.6462V31.799C47.6058 32.7859 45.0982 33.2848 41.8746 33.2848C41.6845 33.2848 41.4895 33.2826 41.2928 33.2789L41.3346 34.0401C41.1989 33.8905 41.0086 33.7948 40.7938 33.7834L40.7651 33.2611C39.8284 33.1796 39.1039 32.378 39.1323 31.4254C39.1574 30.5858 39.7754 29.8833 40.5712 29.7223L40.5542 29.4114C40.5374 29.1053 40.421 28.8132 40.2232 28.5796C40.2137 28.5685 39.2624 27.4457 38.3135 26.3444C37.7532 25.6943 37.3021 25.1775 36.9725 24.8084C36.7666 24.5777 36.6091 24.4052 36.491 24.2816C36.0706 23.8416 35.6747 23.689 35.3403 23.6722C34.5585 24.8092 33.2503 25.5565 31.7706 25.5565C30.2908 25.5565 28.9826 24.8092 28.2008 23.6722C27.8665 23.689 27.4706 23.8416 27.0501 24.2813C26.932 24.4049 26.7745 24.5774 26.5686 24.8081C26.239 25.1773 25.788 25.694 25.2276 26.3441C24.2786 27.4451 23.3274 28.5679 23.318 28.5794C23.1199 28.8132 23.0037 29.105 22.987 29.4111L22.7473 33.7831C22.5325 33.7943 22.3419 33.8902 22.2065 34.0398C22.0864 34.1723 22.0082 34.3445 22.0003 34.5376C21.9951 34.7173 22.0505 34.8875 22.1539 35.0303L22.1538 35.0294ZM41.0164 34.559C41.0195 34.6285 40.9944 34.6957 40.9465 34.7479C40.8985 34.7998 40.8336 34.8302 40.764 34.8327L38.0044 34.9438L37.9939 34.9441C37.8545 34.9441 37.7367 34.8305 37.7311 34.6913C37.728 34.6218 37.7531 34.5545 37.801 34.5024C37.849 34.4505 37.9139 34.4201 37.9835 34.4176L40.7539 34.3062C40.8929 34.3062 41.0108 34.4198 41.0164 34.559H41.0164ZM22.8008 34.3065H22.801L25.5611 34.4176C25.6304 34.4203 25.6954 34.4505 25.7433 34.5024C25.7912 34.5543 25.816 34.6215 25.8132 34.6913C25.8076 34.8308 25.6898 34.9441 25.5505 34.9441L22.7798 34.8327C22.7104 34.8299 22.6455 34.7998 22.5976 34.7479C22.5497 34.696 22.5249 34.6288 22.5277 34.559C22.5332 34.4198 22.6511 34.3065 22.8007 34.3065H22.8008Z" fill="#1D24B1"/>
<path d="M35.7179 21.219C35.7179 23.4015 33.9511 25.1704 31.772 25.1704C29.5926 25.1704 27.8262 23.4014 27.8262 21.219C27.8262 19.0368 29.5927 17.2678 31.772 17.2678C33.9511 17.2678 35.7179 19.0368 35.7179 21.219Z" fill="#1D24B1"/>
<path d="M48.5792 18.9514C48.5792 21.1337 46.8124 22.9029 44.6333 22.9029C42.4542 22.9029 40.6875 21.1336 40.6875 18.9514C40.6875 16.7689 42.4543 15 44.6333 15C46.8125 15 48.5792 16.769 48.5792 18.9514Z" fill="#1D24B1"/>
</svg>
