<svg width="70" height="70" viewBox="0 0 70 70" fill="none" xmlns="http://www.w3.org/2000/svg">
<path fill-rule="evenodd" clip-rule="evenodd" d="M65.242 17.3698C59.2964 8.69273 49.313 3 38 3C19.7746 3 5 17.7746 5 36C5 54.2254 19.7746 69 38 69C41.7025 69 45.2626 68.3902 48.5853 67.2657C44.4082 69.0266 39.8178 70 35 70C15.67 70 0 54.33 0 35C0 15.67 15.67 0 35 0C47.9011 0 59.172 6.98013 65.242 17.3698Z" fill="#1D24B1"/>
<path d="M39.9822 37.7979C44.3084 35.7679 47 31.6323 47 27.0065C47 23.8511 45.688 20.8458 43.2985 18.5554C40.909 16.2602 37.7852 15 34.5001 15C27.6072 15 22 20.3856 22 27.0068H28.3358C28.3358 23.7416 31.1 21.086 34.4999 21.086C36.093 21.086 37.6287 21.7159 38.8159 22.8611C40.0081 24.0062 40.6639 25.4765 40.6639 27.0116C40.6639 29.2917 39.3363 31.332 37.2021 32.3373C33.6357 34.0025 31.3348 37.708 31.3348 41.7634V43.9637H37.6705V41.7634C37.6651 40.0133 38.5762 38.458 39.9819 37.7981L39.9822 37.7979Z" fill="#1D24B1"/>
<path d="M34.499 47.399C32.3231 47.399 30.5527 49.1044 30.5527 51.1896C30.5527 53.2999 32.3282 55 34.499 55C36.675 55 38.4453 53.2946 38.4453 51.1896C38.4453 49.1043 36.675 47.399 34.499 47.399Z" fill="#1D24B1"/>
</svg>
