<svg width="30" height="30" viewBox="0 0 30 30" fill="none" xmlns="http://www.w3.org/2000/svg">
<path opacity="0.7" fill-rule="evenodd" clip-rule="evenodd" d="M15 30C6.71573 30 0 23.2843 0 15C0 6.71573 6.71573 0 15 0C23.2843 0 30 6.71573 30 15C30 23.2843 23.2843 30 15 30ZM15 24C10.0294 24 6 19.9706 6 15C6 10.0294 10.0294 6 15 6C19.9706 6 24 10.0294 24 15C24 19.9706 19.9706 24 15 24Z" fill="#1D24B1"/>
<path opacity="0.7" fill-rule="evenodd" clip-rule="evenodd" d="M15 28C7.8203 28 2 22.1797 2 15C2 7.8203 7.8203 2 15 2C22.1797 2 28 7.8203 28 15C28 22.1797 22.1797 28 15 28ZM15.0008 22.8C10.693 22.8 7.20078 19.3078 7.20078 15C7.20078 10.6922 10.693 7.2 15.0008 7.2C19.3086 7.2 22.8008 10.6922 22.8008 15C22.8008 19.3078 19.3086 22.8 15.0008 22.8Z" fill="#00AC00"/>
<circle r="8" transform="matrix(-1 0 0 1 15 15)" fill="#D9D9D9"/>
<path d="M19.5 15L12.75 11.1029V18.8971L19.5 15Z" fill="#1D24B1"/>
</svg>
