<svg width="1592" height="533" viewBox="0 0 1592 533" fill="none" xmlns="http://www.w3.org/2000/svg">
<path opacity="0.3" fill-rule="evenodd" clip-rule="evenodd" d="M701 488C714.807 488 726 476.807 726 463C726 449.193 714.807 438 701 438C687.193 438 676 449.193 676 463C676 476.807 687.193 488 701 488ZM701 478C709.284 478 716 471.284 716 463C716 454.716 709.284 448 701 448C692.716 448 686 454.716 686 463C686 471.284 692.716 478 701 478Z" fill="white"/>
<path opacity="0.3" fill-rule="evenodd" clip-rule="evenodd" d="M701 498C720.33 498 736 482.33 736 463C736 443.67 720.33 428 701 428C681.67 428 666 443.67 666 463C666 482.33 681.67 498 701 498ZM701 484C712.598 484 722 474.598 722 463C722 451.402 712.598 442 701 442C689.402 442 680 451.402 680 463C680 474.598 689.402 484 701 484Z" fill="white"/>
<path opacity="0.3" fill-rule="evenodd" clip-rule="evenodd" d="M264 523C277.807 523 289 511.807 289 498C289 484.193 277.807 473 264 473C250.193 473 239 484.193 239 498C239 511.807 250.193 523 264 523ZM264 513C272.284 513 279 506.284 279 498C279 489.716 272.284 483 264 483C255.716 483 249 489.716 249 498C249 506.284 255.716 513 264 513Z" fill="white"/>
<path opacity="0.3" fill-rule="evenodd" clip-rule="evenodd" d="M264 533C283.33 533 299 517.33 299 498C299 478.67 283.33 463 264 463C244.67 463 229 478.67 229 498C229 517.33 244.67 533 264 533ZM264 519C275.598 519 285 509.598 285 498C285 486.402 275.598 477 264 477C252.402 477 243 486.402 243 498C243 509.598 252.402 519 264 519Z" fill="white"/>
<path opacity="0.3" fill-rule="evenodd" clip-rule="evenodd" d="M476 141C489.807 141 501 129.807 501 116C501 102.193 489.807 91 476 91C462.193 91 451 102.193 451 116C451 129.807 462.193 141 476 141ZM476 131C484.284 131 491 124.284 491 116C491 107.716 484.284 101 476 101C467.716 101 461 107.716 461 116C461 124.284 467.716 131 476 131Z" fill="white"/>
<path opacity="0.3" fill-rule="evenodd" clip-rule="evenodd" d="M476 151C495.33 151 511 135.33 511 116C511 96.67 495.33 81 476 81C456.67 81 441 96.67 441 116C441 135.33 456.67 151 476 151ZM476 137C487.598 137 497 127.598 497 116C497 104.402 487.598 95 476 95C464.402 95 455 104.402 455 116C455 127.598 464.402 137 476 137Z" fill="white"/>
<path opacity="0.3" fill-rule="evenodd" clip-rule="evenodd" d="M1497 488C1510.81 488 1522 476.807 1522 463C1522 449.193 1510.81 438 1497 438C1483.19 438 1472 449.193 1472 463C1472 476.807 1483.19 488 1497 488ZM1497 478C1505.28 478 1512 471.284 1512 463C1512 454.716 1505.28 448 1497 448C1488.72 448 1482 454.716 1482 463C1482 471.284 1488.72 478 1497 478Z" fill="white"/>
<path opacity="0.3" fill-rule="evenodd" clip-rule="evenodd" d="M1497 498C1516.33 498 1532 482.33 1532 463C1532 443.67 1516.33 428 1497 428C1477.67 428 1462 443.67 1462 463C1462 482.33 1477.67 498 1497 498ZM1497 484C1508.6 484 1518 474.598 1518 463C1518 451.402 1508.6 442 1497 442C1485.4 442 1476 451.402 1476 463C1476 474.598 1485.4 484 1497 484Z" fill="white"/>
<path opacity="0.3" fill-rule="evenodd" clip-rule="evenodd" d="M35 106C48.8071 106 60 94.8071 60 81C60 67.1929 48.8071 56 35 56C21.1929 56 10 67.1929 10 81C10 94.8071 21.1929 106 35 106ZM35 96C43.2843 96 50 89.2843 50 81C50 72.7157 43.2843 66 35 66C26.7157 66 20 72.7157 20 81C20 89.2843 26.7157 96 35 96Z" fill="white"/>
<path opacity="0.3" fill-rule="evenodd" clip-rule="evenodd" d="M35 116C54.33 116 70 100.33 70 81C70 61.67 54.33 46 35 46C15.67 46 0 61.67 0 81C0 100.33 15.67 116 35 116ZM35 102C46.598 102 56 92.598 56 81C56 69.402 46.598 60 35 60C23.402 60 14 69.402 14 81C14 92.598 23.402 102 35 102Z" fill="white"/>
<path opacity="0.3" fill-rule="evenodd" clip-rule="evenodd" d="M1557 60C1570.81 60 1582 48.8071 1582 35C1582 21.1929 1570.81 10 1557 10C1543.19 10 1532 21.1929 1532 35C1532 48.8071 1543.19 60 1557 60ZM1557 50C1565.28 50 1572 43.2843 1572 35C1572 26.7157 1565.28 20 1557 20C1548.72 20 1542 26.7157 1542 35C1542 43.2843 1548.72 50 1557 50Z" fill="white"/>
<path opacity="0.3" fill-rule="evenodd" clip-rule="evenodd" d="M1557 70C1576.33 70 1592 54.33 1592 35C1592 15.67 1576.33 0 1557 0C1537.67 0 1522 15.67 1522 35C1522 54.33 1537.67 70 1557 70ZM1557 56C1568.6 56 1578 46.598 1578 35C1578 23.402 1568.6 14 1557 14C1545.4 14 1536 23.402 1536 35C1536 46.598 1545.4 56 1557 56Z" fill="white"/>
<path opacity="0.3" fill-rule="evenodd" clip-rule="evenodd" d="M1171 166C1184.81 166 1196 154.807 1196 141C1196 127.193 1184.81 116 1171 116C1157.19 116 1146 127.193 1146 141C1146 154.807 1157.19 166 1171 166ZM1171 156C1179.28 156 1186 149.284 1186 141C1186 132.716 1179.28 126 1171 126C1162.72 126 1156 132.716 1156 141C1156 149.284 1162.72 156 1171 156Z" fill="white"/>
<path opacity="0.3" fill-rule="evenodd" clip-rule="evenodd" d="M1171 176C1190.33 176 1206 160.33 1206 141C1206 121.67 1190.33 106 1171 106C1151.67 106 1136 121.67 1136 141C1136 160.33 1151.67 176 1171 176ZM1171 162C1182.6 162 1192 152.598 1192 141C1192 129.402 1182.6 120 1171 120C1159.4 120 1150 129.402 1150 141C1150 152.598 1159.4 162 1171 162Z" fill="white"/>
</svg>
