<svg width="30" height="30" viewBox="0 0 30 30" fill="none" xmlns="http://www.w3.org/2000/svg">
<path opacity="0.7" fill-rule="evenodd" clip-rule="evenodd" d="M15 30C23.2843 30 30 23.2843 30 15C30 6.71573 23.2843 0 15 0C6.71573 0 0 6.71573 0 15C0 23.2843 6.71573 30 15 30ZM15 24C19.9706 24 24 19.9706 24 15C24 10.0294 19.9706 6 15 6C10.0294 6 6 10.0294 6 15C6 19.9706 10.0294 24 15 24Z" fill="#1D24B1"/>
<path opacity="0.7" fill-rule="evenodd" clip-rule="evenodd" d="M15 28C22.1797 28 28 22.1797 28 15C28 7.8203 22.1797 2 15 2C7.8203 2 2 7.8203 2 15C2 22.1797 7.8203 28 15 28ZM14.9992 22.8C19.307 22.8 22.7992 19.3078 22.7992 15C22.7992 10.6922 19.307 7.2 14.9992 7.2C10.6914 7.2 7.19922 10.6922 7.19922 15C7.19922 19.3078 10.6914 22.8 14.9992 22.8Z" fill="#00AC00"/>
<circle cx="15" cy="15" r="8" fill="#D9D9D9"/>
<path d="M10.5 15L17.25 11.1029V18.8971L10.5 15Z" fill="#1D24B1"/>
</svg>
